<svg xmlns="http://www.w3.org/2000/svg" width="1024" height="1024" viewBox="0 0 1024 1024">
<g>
<path d="M 884.76 783.47 C884.03,783.28 883.33,783.04 882.71,782.75 C879.61,781.31 879.42,780.73 881.50,779.00 C882.33,778.32 883.00,777.42 883.00,777.00 C883.00,776.59 884.58,774.53 886.50,772.43 C888.42,770.33 890.00,768.08 890.00,767.43 C890.00,766.78 890.65,765.70 891.45,765.04 C893.11,763.67 898.00,754.22 898.00,752.40 C898.00,751.36 899.47,748.01 903.13,740.76 C903.61,739.81 904.00,736.64 904.00,733.71 C904.00,730.79 904.42,727.97 904.93,727.45 C908.16,724.17 904.48,692.00 900.88,692.00 C900.40,692.00 900.00,690.82 900.00,689.37 C900.00,687.89 898.55,684.11 896.66,680.21 C897.71,682.18 898.57,683.96 898.97,685.00 C899.71,686.92 900.70,688.93 901.16,689.45 C901.62,689.97 902.00,690.99 902.00,691.71 C902.00,692.43 902.86,694.93 903.92,697.26 C906.41,702.76 907.22,707.66 907.27,717.50 C907.32,728.42 905.81,738.29 902.99,745.50 C897.31,759.98 892.28,768.38 884.20,776.88 C883.48,777.63 883.03,779.43 883.20,780.88 C883.36,782.32 883.75,783.07 884.76,783.47 ZM 858.66 337.40 C858.13,335.68 857.50,334.00 856.88,332.76 C856.39,331.81 856.00,329.22 856.00,327.01 C856.00,323.49 856.28,323.00 858.30,323.00 C859.57,323.00 861.03,322.62 861.55,322.16 C862.07,321.70 864.08,320.70 866.00,319.94 C867.92,319.19 870.17,317.83 871.00,316.92 C871.83,316.02 874.08,314.67 876.00,313.93 C880.89,312.06 886.00,308.97 886.00,307.90 C886.00,307.41 886.56,307.00 887.25,307.00 C887.94,306.99 890.08,306.01 892.00,304.81 C893.92,303.60 896.16,302.51 896.97,302.37 C897.78,302.23 898.96,301.41 899.58,300.56 C900.21,299.70 901.23,299.00 901.86,299.00 C904.10,299.00 910.91,291.80 912.09,288.18 C912.74,286.16 913.89,284.14 914.64,283.70 C914.90,283.55 915.11,283.33 915.29,283.05 C914.70,285.60 913.58,288.42 911.94,291.50 C910.35,294.49 903.03,300.64 898.10,303.14 C896.67,303.86 892.64,306.15 889.15,308.22 C885.65,310.30 882.59,312.00 882.34,312.00 C882.09,312.00 879.33,313.70 876.20,315.78 C870.19,319.76 867.40,321.16 862.50,322.64 C858.08,323.98 856.64,327.70 858.01,334.24 C858.22,335.23 858.45,336.33 858.66,337.40 ZM 127.83 576.54 C130.22,578.73 131.40,579.00 138.24,579.00 C142.75,579.00 146.00,578.58 146.00,578.00 C146.00,577.45 147.06,577.00 148.36,577.00 C149.66,577.00 152.38,575.88 154.40,574.50 C156.43,573.12 158.34,572.00 158.64,572.00 C159.85,572.00 176.60,563.72 178.11,562.38 C178.99,561.60 182.81,559.39 186.61,557.48 C191.95,554.79 194.23,554.15 196.77,554.62 C197.19,554.70 197.62,554.83 198.06,555.02 C194.60,555.28 186.82,558.73 178.15,563.85 C172.84,566.99 164.45,571.51 159.50,573.88 C154.55,576.26 149.72,578.61 148.76,579.10 C147.81,579.60 143.53,580.00 139.26,580.00 C131.99,579.99 131.30,579.80 128.24,576.93 C128.10,576.80 127.96,576.67 127.83,576.54 ZM 889.18 412.43 L 892.13 412.53 C907.38,413.06 913.00,412.95 913.00,412.13 C913.00,411.39 915.60,411.00 920.50,411.00 C924.62,411.00 928.00,410.63 928.00,410.19 C928.00,409.74 929.49,408.79 931.30,408.08 C933.24,407.32 935.04,405.69 935.64,404.14 C938.65,396.44 939.34,390.43 937.65,385.98 C939.80,390.46 940.51,396.30 939.01,400.27 C936.62,406.62 935.66,407.93 932.11,409.67 C926.06,412.63 893.92,415.32 891.66,413.06 C891.42,412.82 890.53,412.60 889.18,412.43 ZM 527.02 1024.00 C808.29,1024.00 853.34,1023.80 854.57,1022.57 C855.36,1021.79 856.00,1019.38 856.00,1017.23 C856.00,1015.07 856.71,1011.89 857.57,1010.16 C857.72,1009.86 857.85,1009.55 857.97,1009.19 C857.71,1013.43 857.39,1016.67 857.03,1018.25 L 855.72 1024.00 L 527.02 1024.00 ZM 98.64 464.40 C99.27,464.59 99.91,464.59 100.52,464.35 C101.24,464.08 103.30,464.62 105.11,465.56 C107.70,466.90 109.98,467.14 115.84,466.70 C121.64,466.26 123.80,466.48 125.68,467.71 C127.62,468.98 129.73,469.16 136.58,468.64 C143.34,468.12 145.69,468.31 148.15,469.58 C149.14,470.09 150.91,470.64 152.83,471.06 C149.42,470.70 145.07,470.35 139.50,469.91 C105.20,467.22 102.49,466.98 98.64,464.40 ZM 824.23 538.09 C825.87,536.05 827.00,534.33 827.00,533.78 C827.00,532.98 828.34,531.02 829.97,529.42 C831.61,527.81 832.96,525.96 832.97,525.30 C832.99,524.64 833.61,523.74 834.36,523.30 C835.11,522.86 836.70,520.47 837.89,518.00 C841.15,511.25 843.22,507.56 844.07,506.99 C844.79,506.51 847.27,502.32 849.27,498.53 C846.61,504.14 842.48,512.25 839.20,518.17 C835.58,524.70 832.88,528.33 824.23,538.09 ZM 863.85 459.02 C863.89,457.98 863.83,456.62 863.65,454.96 C863.19,450.55 863.40,448.92 864.53,447.98 C865.41,447.25 866.00,445.02 866.00,442.44 C866.00,440.06 866.45,437.84 867.00,437.50 C867.56,437.15 868.00,432.40 868.00,426.66 C868.00,426.01 868.00,425.40 868.01,424.81 C868.00,425.95 868.00,427.18 868.00,428.52 C868.00,435.17 867.59,441.03 867.10,441.55 C866.60,442.07 865.94,444.52 865.63,447.00 C864.83,453.37 864.31,456.96 863.85,459.02 ZM 855.27 923.04 C855.01,919.90 854.69,917.35 854.45,916.72 C853.33,913.81 854.48,911.55 857.51,910.68 C860.83,909.72 864.58,907.87 868.30,905.40 C866.24,906.85 864.08,908.28 862.35,909.33 L 856.19 913.03 L 855.50 918.96 C855.36,920.17 855.29,921.50 855.27,923.04 ZM 833.48 596.92 C833.18,595.78 832.72,595.15 832.00,594.50 C830.77,593.39 830.00,591.42 830.00,589.40 C830.00,587.60 829.55,585.84 829.00,585.50 C828.45,585.16 828.00,581.79 828.00,578.00 C828.00,574.21 827.55,570.84 827.00,570.50 C827.55,570.84 828.00,572.75 828.00,574.74 C828.00,576.73 828.42,579.74 828.93,581.43 C829.44,583.12 830.39,586.53 831.03,589.00 C831.67,591.47 832.60,594.28 833.10,595.24 C833.23,595.50 833.36,596.09 833.48,596.92 ZM 858.77 986.47 C858.74,984.15 858.70,981.59 858.65,978.76 C858.44,966.24 857.94,953.36 857.45,946.67 C857.65,948.20 857.87,949.81 858.10,951.50 C858.85,956.89 859.02,971.92 858.77,986.47 ZM 869.73 413.97 L 871.25 411.80 L 877.47 412.02 C873.37,412.08 871.05,412.41 869.73,413.97 ZM 915.79 278.16 C915.59,276.77 915.17,275.25 914.54,273.75 C914.26,273.09 913.95,272.49 913.57,271.95 C914.93,273.69 915.67,275.76 915.79,278.16 ZM 92.00 450.33 C92.00,454.18 93.12,457.98 94.71,460.68 C92.92,458.03 92.00,454.55 92.00,450.33 ZM 134.00 545.99 C126.50,551.21 122.44,557.60 122.13,563.75 C122.34,557.59 126.37,551.29 134.00,545.99 ZM 891.57 783.14 C891.48,783.20 891.41,783.26 891.35,783.31 C890.71,783.96 888.85,784.12 886.84,783.87 C888.39,783.96 890.36,783.69 891.41,783.21 C891.46,783.18 891.52,783.16 891.57,783.14 ZM 861.23 348.07 C861.12,347.84 861.01,347.67 860.90,347.55 C860.42,347.05 860.03,345.60 860.00,344.28 C860.30,345.52 860.69,346.77 861.01,347.50 C861.08,347.67 861.16,347.86 861.23,348.07 ZM 891.79 671.71 C890.80,670.29 890.00,668.88 890.00,668.53 C890.00,668.18 888.42,665.62 886.76,663.10 C888.42,665.57 890.00,668.06 890.00,668.33 C890.00,668.49 890.72,669.84 891.79,671.71 ZM 904.50 779.00 C904.16,779.55 902.90,780.01 901.69,780.02 C900.45,780.02 898.01,780.62 895.79,781.34 C898.27,780.39 900.00,780.00 901.49,780.00 C902.80,780.00 904.16,779.55 904.50,779.00 ZM 932.54 379.91 C930.92,378.88 928.96,378.07 926.66,377.45 C929.18,378.04 930.99,378.83 932.54,379.91 ZM 202.68 558.48 C204.33,560.22 205.87,562.42 207.06,564.82 C206.07,562.80 204.35,560.40 202.68,558.48 ZM 865.13 373.13 C864.20,371.48 864.14,368.98 863.79,365.22 C863.43,361.33 863.10,358.18 862.78,355.67 C863.12,358.21 863.46,361.35 863.80,365.22 C864.14,368.98 864.20,371.48 865.13,373.13 ZM 817.41 550.15 C816.96,547.36 817.09,546.35 819.56,543.43 C817.09,546.46 816.99,547.49 817.41,550.15 ZM 160.07 472.16 C161.71,472.48 162.92,472.95 163.86,473.68 C162.97,473.05 161.77,472.56 160.07,472.16 ZM 861.00 467.50 C861.55,467.16 862.00,465.81 862.00,464.50 C862.00,464.01 862.07,463.51 862.19,463.05 C862.07,463.56 862.00,464.12 862.00,464.64 C862.00,465.87 861.55,467.16 861.00,467.50 ZM 844.69 624.66 C839.75,622.06 837.08,620.50 835.65,618.21 C837.08,620.49 839.75,622.06 844.69,624.66 ZM 907.82 376.08 C903.92,376.04 899.32,376.05 893.88,376.10 C899.27,376.05 903.87,376.04 907.82,376.08 Z" fill="rgba(0,0,0,1)"/>
<path d="M 197.21 1020.25 C193.28,1007.03 192.86,999.03 192.70,936.00 C192.53,869.37 193.45,849.30 198.04,818.50 C198.62,814.65 199.51,807.67 200.02,803.00 C202.56,779.89 203.44,774.19 206.01,764.00 C206.64,761.53 207.55,757.03 208.04,754.00 C208.53,750.97 209.39,746.03 209.94,743.00 C210.49,739.97 211.23,735.81 211.58,733.74 C211.93,731.67 212.62,729.73 213.11,729.43 C213.60,729.13 214.00,727.81 214.00,726.50 C214.00,725.19 214.45,723.84 215.00,723.50 C215.55,723.16 216.00,721.10 216.00,718.93 C216.00,716.75 216.41,714.19 216.90,713.24 C217.40,712.28 218.38,709.47 219.08,707.00 C219.79,704.53 220.65,702.05 220.99,701.50 C221.34,700.95 222.69,697.12 223.99,693.00 C225.30,688.88 226.73,685.07 227.18,684.55 C227.63,684.03 228.00,682.78 228.00,681.79 C228.00,680.79 228.40,679.19 228.88,678.24 C229.70,676.63 230.59,674.54 232.90,668.75 C233.39,667.51 234.34,664.92 235.00,663.00 C236.18,659.58 239.33,652.23 241.11,648.76 C241.60,647.81 242.00,646.41 242.00,645.65 C242.00,644.90 243.41,641.41 245.13,637.89 C246.85,634.38 248.75,630.38 249.35,629.00 C249.94,627.62 251.18,625.38 252.10,624.00 C258.50,614.40 259.25,610.93 255.75,606.93 C253.59,604.46 241.77,596.00 240.49,596.00 C237.26,596.00 209.84,570.41 207.06,564.82 C204.45,559.55 200.11,555.24 196.77,554.62 C194.23,554.15 191.95,554.79 186.61,557.48 C182.81,559.39 178.99,561.60 178.11,562.38 C176.60,563.72 159.85,572.00 158.64,572.00 C158.34,572.00 156.43,573.12 154.40,574.50 C152.38,575.88 149.66,577.00 148.36,577.00 C147.06,577.00 146.00,577.45 146.00,578.00 C146.00,578.58 142.75,579.00 138.24,579.00 C131.31,579.00 130.19,578.73 127.73,576.45 C118.33,567.73 120.93,555.07 134.00,545.99 C135.93,544.65 138.62,542.53 139.99,541.28 C141.36,540.03 142.79,539.00 143.17,539.00 C143.55,539.00 144.45,538.43 145.18,537.74 C146.43,536.54 157.66,530.88 163.00,528.76 C164.38,528.21 166.28,527.37 167.24,526.88 C168.19,526.40 169.83,526.00 170.88,526.00 C173.39,526.00 179.00,520.71 178.99,518.35 C178.99,517.33 178.32,515.21 177.49,513.64 C176.67,512.06 176.00,510.07 176.00,509.21 C176.00,506.89 173.09,498.09 170.88,493.76 C170.40,492.81 170.00,491.14 170.00,490.06 C170.00,488.98 169.60,487.06 169.10,485.80 C168.61,484.53 167.64,481.59 166.95,479.26 C165.28,473.64 163.58,472.37 156.86,471.72 C153.76,471.41 149.84,470.45 148.15,469.58 C145.69,468.31 143.34,468.12 136.58,468.64 C129.73,469.16 127.62,468.98 125.68,467.71 C123.80,466.48 121.64,466.26 115.84,466.70 C109.98,467.14 107.70,466.90 105.11,465.56 C103.30,464.62 101.24,464.08 100.52,464.35 C96.65,465.84 92.00,458.19 92.00,450.33 C92.00,442.98 93.94,439.68 100.41,436.05 C103.83,434.13 105.69,434.00 129.91,434.00 C150.84,434.00 155.98,433.73 156.92,432.60 C157.66,431.71 158.20,425.31 158.42,414.85 C158.92,391.31 160.50,373.65 163.94,353.00 C165.24,345.26 166.02,341.81 167.01,339.50 C167.48,338.40 168.10,336.15 168.39,334.50 C168.67,332.85 169.40,329.25 170.00,326.50 C170.60,323.75 171.35,320.26 171.66,318.74 C171.97,317.22 172.63,315.73 173.12,315.43 C173.60,315.13 174.00,313.81 174.00,312.50 C174.00,311.19 174.45,309.84 175.00,309.50 C175.55,309.16 176.00,307.59 176.00,306.00 C176.00,304.41 176.45,302.84 177.00,302.50 C177.55,302.16 178.00,300.81 178.00,299.50 C178.00,298.19 178.45,296.84 179.00,296.50 C179.55,296.16 180.00,295.21 180.00,294.39 C180.00,293.57 180.90,291.04 182.00,288.76 C183.10,286.49 184.00,284.23 184.00,283.75 C184.00,283.27 185.39,279.86 187.10,276.19 C191.30,267.12 191.75,265.96 192.48,262.50 C192.82,260.85 193.54,257.48 194.08,255.00 C194.61,252.52 195.49,247.12 196.04,243.00 C196.58,238.88 197.48,232.57 198.04,229.00 C198.60,225.43 199.49,219.12 200.02,215.00 C201.83,200.79 203.58,192.01 206.23,184.00 C207.04,181.52 208.27,177.48 208.95,175.00 C209.64,172.52 210.60,169.72 211.10,168.76 C211.59,167.81 212.00,166.34 212.00,165.50 C212.00,164.66 212.39,163.19 212.88,162.24 C214.34,159.34 216.00,153.49 216.00,151.23 C216.00,148.48 218.16,143.10 225.51,127.50 C231.95,113.83 234.00,109.12 234.00,108.00 C234.00,107.43 234.40,106.19 234.89,105.24 C236.15,102.81 241.36,91.48 243.98,85.50 C246.42,79.93 257.45,68.00 260.16,68.00 C261.11,68.00 262.16,67.55 262.50,67.00 C263.72,65.03 275.10,66.77 277.65,69.31 C278.02,69.69 278.96,70.00 279.72,70.00 C281.59,70.00 291.95,77.11 300.32,84.13 C309.64,91.95 336.98,117.76 340.12,121.70 C341.52,123.46 348.11,130.59 354.76,137.53 L 366.84 150.16 L 374.17 149.77 C378.65,149.53 384.22,148.38 388.50,146.82 C392.35,145.41 397.52,143.67 400.00,142.96 C402.48,142.24 404.93,141.28 405.45,140.83 C405.97,140.37 407.63,140.00 409.14,140.00 C410.65,140.00 412.13,139.60 412.43,139.12 C412.73,138.63 414.22,138.01 415.74,137.74 C417.26,137.48 421.65,136.07 425.50,134.63 C429.34,133.18 433.70,132.00 435.19,132.00 C436.67,132.00 438.13,131.60 438.43,131.11 C438.73,130.62 440.45,129.99 442.24,129.70 C444.03,129.42 447.30,128.66 449.50,128.02 C451.70,127.37 455.41,126.43 457.75,125.92 C460.09,125.42 464.14,124.52 466.75,123.94 C475.94,121.88 486.77,121.09 515.10,120.39 C538.13,119.82 544.37,119.38 547.10,118.09 C549.87,116.79 551.38,114.73 555.23,107.00 C557.82,101.77 559.96,97.00 559.98,96.39 C559.99,95.78 561.80,91.78 564.00,87.50 C566.20,83.22 568.00,79.10 568.00,78.35 C568.00,77.59 568.40,76.19 568.89,75.24 C569.38,74.28 571.57,69.90 573.76,65.50 C575.95,61.10 580.12,53.00 583.03,47.50 C585.93,42.00 590.05,34.16 592.17,30.07 C598.24,18.41 605.04,10.54 611.90,7.26 C616.99,4.82 627.04,5.19 632.55,8.03 C639.39,11.54 649.15,20.08 654.38,27.12 C656.98,30.63 659.70,34.22 660.41,35.09 C665.92,41.84 672.49,53.02 682.99,73.50 C689.55,86.30 693.49,93.53 694.96,95.50 C696.02,96.91 701.50,106.94 706.99,117.50 C721.26,144.97 730.29,155.89 759.49,181.00 C764.93,185.68 770.98,191.09 772.94,193.02 C774.90,194.96 777.64,197.44 779.03,198.52 C780.42,199.61 783.12,202.50 785.03,204.94 C786.94,207.38 789.96,210.96 791.75,212.90 C793.54,214.83 795.00,216.74 795.00,217.14 C795.00,217.53 795.56,218.45 796.25,219.18 C796.94,219.91 799.53,222.98 801.99,226.00 C804.46,229.02 806.72,231.73 807.01,232.00 C808.95,233.80 814.18,241.40 816.82,246.28 C818.55,249.45 821.67,254.63 823.76,257.78 C825.85,260.92 828.22,264.85 829.03,266.50 C829.83,268.15 830.72,269.73 831.00,270.00 C831.27,270.27 832.10,271.57 832.84,272.89 C833.58,274.20 835.11,276.90 836.24,278.89 C837.37,280.87 839.24,284.29 840.41,286.49 C841.57,288.68 843.30,290.63 844.26,290.81 C846.05,291.16 857.24,286.19 857.83,284.79 C858.02,284.35 858.60,284.00 859.14,284.00 C859.67,284.00 862.67,282.29 865.80,280.21 C870.95,276.79 881.48,271.35 888.00,268.76 C889.38,268.21 891.28,267.37 892.24,266.88 C895.41,265.27 903.84,265.91 908.55,268.13 C911.83,269.67 913.48,271.22 914.54,273.75 C916.37,278.13 916.42,282.65 914.64,283.70 C913.89,284.14 912.74,286.16 912.09,288.18 C910.91,291.80 904.10,299.00 901.86,299.00 C901.23,299.00 900.21,299.70 899.58,300.56 C898.96,301.41 897.78,302.23 896.97,302.37 C896.16,302.51 893.92,303.60 892.00,304.81 C890.08,306.01 887.94,306.99 887.25,307.00 C886.56,307.00 886.00,307.41 886.00,307.90 C886.00,308.97 880.89,312.06 876.00,313.93 C874.08,314.67 871.83,316.02 871.00,316.92 C870.17,317.83 867.92,319.19 866.00,319.94 C864.08,320.70 862.07,321.70 861.55,322.16 C861.03,322.62 859.57,323.00 858.30,323.00 C856.28,323.00 856.00,323.49 856.00,327.01 C856.00,329.22 856.39,331.81 856.88,332.76 C858.42,335.82 860.00,341.56 860.00,344.12 C860.00,345.48 860.40,347.03 860.90,347.55 C861.90,348.61 862.73,353.68 863.79,365.22 C864.18,369.44 864.21,372.07 865.51,373.69 C867.83,376.60 874.19,376.29 893.88,376.10 C912.59,375.93 921.44,376.23 925.56,377.18 C938.41,380.14 941.64,388.80 935.64,404.14 C935.04,405.69 933.24,407.32 931.30,408.08 C929.49,408.79 928.00,409.74 928.00,410.19 C928.00,410.63 924.62,411.00 920.50,411.00 C915.60,411.00 913.00,411.39 913.00,412.13 C913.00,412.95 907.38,413.06 892.13,412.53 L 871.25 411.80 L 869.63 414.12 C868.38,415.90 868.00,418.85 868.00,426.66 C868.00,432.40 867.56,437.15 867.00,437.50 C866.45,437.84 866.00,440.06 866.00,442.44 C866.00,445.02 865.41,447.25 864.53,447.98 C863.40,448.92 863.19,450.55 863.65,454.96 C864.05,458.77 863.87,460.96 863.13,461.42 C862.51,461.80 862.00,463.19 862.00,464.50 C862.00,465.81 861.55,467.16 861.00,467.50 C860.45,467.84 860.00,469.00 860.00,470.07 C860.00,471.15 859.59,472.81 859.10,473.76 C858.60,474.72 857.61,477.52 856.89,480.00 C856.18,482.48 854.78,485.98 853.80,487.78 C852.81,489.58 852.00,491.68 852.00,492.43 C852.00,493.91 845.33,506.15 844.07,506.99 C843.22,507.56 841.15,511.25 837.89,518.00 C836.70,520.47 835.11,522.86 834.36,523.30 C833.61,523.74 832.99,524.64 832.97,525.30 C832.96,525.96 831.61,527.81 829.97,529.42 C828.34,531.02 827.00,532.98 827.00,533.78 C827.00,534.57 824.71,537.73 821.90,540.80 C817.18,545.97 816.85,546.65 817.41,550.17 C817.74,552.25 819.81,556.74 822.01,560.13 C824.20,563.53 826.00,567.11 826.00,568.10 C826.00,569.08 826.45,570.16 827.00,570.50 C827.55,570.84 828.00,574.21 828.00,578.00 C828.00,581.79 828.45,585.16 829.00,585.50 C829.55,585.84 830.00,587.60 830.00,589.40 C830.00,591.42 830.77,593.39 832.00,594.50 C833.75,596.08 834.00,597.58 834.00,606.52 C834.00,618.38 834.57,619.34 844.69,624.66 C847.88,626.34 852.47,628.79 854.88,630.11 C859.38,632.57 875.11,647.59 879.83,653.94 C881.29,655.90 882.75,657.72 883.06,658.00 C884.11,658.92 890.00,667.85 890.00,668.53 C890.00,668.89 890.85,670.39 891.89,671.85 C895.39,676.76 900.00,686.73 900.00,689.37 C900.00,690.82 900.40,692.00 900.88,692.00 C904.48,692.00 908.16,724.17 904.93,727.45 C904.42,727.97 904.00,730.79 904.00,733.71 C904.00,736.64 903.61,739.81 903.13,740.76 C899.47,748.01 898.00,751.36 898.00,752.40 C898.00,754.22 893.11,763.67 891.45,765.04 C890.65,765.70 890.00,766.78 890.00,767.43 C890.00,768.08 888.42,770.33 886.50,772.43 C884.58,774.53 883.00,776.59 883.00,777.00 C883.00,777.42 882.33,778.32 881.50,779.00 C879.42,780.73 879.61,781.31 882.71,782.75 C885.63,784.11 890.26,784.41 891.35,783.31 C892.45,782.22 899.30,780.03 901.69,780.02 C902.90,780.01 904.16,779.55 904.50,779.00 C905.33,777.65 912.24,777.73 915.70,779.12 C926.11,783.31 929.32,785.77 930.73,790.65 C931.34,792.77 932.38,796.37 933.05,798.65 C933.74,801.03 933.95,804.24 933.54,806.15 C933.15,807.99 932.63,812.20 932.38,815.50 C932.12,818.80 931.55,822.40 931.09,823.50 C930.64,824.60 929.79,826.62 929.20,828.00 C928.61,829.38 927.82,831.62 927.44,833.00 C926.29,837.18 917.07,855.70 915.49,857.01 C914.67,857.69 914.00,858.78 914.00,859.44 C914.00,860.09 912.65,861.92 911.00,863.50 C909.35,865.08 908.00,866.87 908.00,867.48 C908.00,868.69 881.33,894.99 873.41,901.59 C868.17,905.96 862.37,909.27 857.51,910.68 C854.48,911.55 853.33,913.81 854.45,916.72 C854.78,917.60 855.28,922.19 855.54,926.91 C855.81,931.64 856.51,938.88 857.10,943.00 C857.68,947.12 858.38,963.22 858.65,978.76 C859.07,1003.10 858.92,1007.45 857.57,1010.16 C856.71,1011.89 856.00,1015.07 856.00,1017.23 C856.00,1019.38 855.36,1021.79 854.57,1022.57 C854.09,1023.06 846.78,1023.38 820.81,1023.60 L 821.42 1020.25 C821.79,1018.19 822.49,1002.55 822.98,985.50 C823.80,957.00 823.71,953.33 821.86,940.00 C820.76,932.03 819.69,924.97 819.49,924.33 C819.23,923.51 816.93,923.90 811.81,925.64 C803.80,928.37 802.87,928.60 782.51,932.95 C773.00,934.98 768.12,936.49 767.26,937.66 C765.72,939.77 765.59,952.97 767.05,958.25 C767.88,961.22 768.58,962.00 770.44,962.00 C776.00,962.00 786.46,966.23 790.23,969.99 C795.06,974.83 795.25,978.51 790.90,983.47 C788.28,986.45 787.14,987.00 783.65,986.99 C781.37,986.99 778.33,986.38 776.90,985.63 C772.82,983.50 765.72,982.73 763.89,984.22 C763.03,984.93 760.59,989.55 758.47,994.50 C752.76,1007.79 751.76,1009.00 746.47,1009.00 C740.36,1009.00 739.65,1007.38 741.00,996.47 C741.59,991.77 741.80,987.49 741.47,986.96 C740.46,985.32 737.16,985.89 731.94,988.62 C723.74,992.92 716.08,990.13 716.02,982.83 C715.99,978.54 720.21,974.68 730.70,969.42 C736.09,966.71 740.95,964.15 741.50,963.72 C742.05,963.28 743.38,962.32 744.45,961.58 C746.18,960.39 746.37,959.20 746.14,951.37 C745.97,945.62 745.91,942.46 744.31,940.82 C742.30,938.78 737.90,939.09 727.88,939.72 C710.50,940.81 697.79,940.06 684.64,937.17 C672.55,934.51 672.49,934.51 669.89,937.11 C667.98,939.02 667.85,939.92 668.46,946.86 C669.36,957.16 669.59,957.74 673.82,959.99 C685.09,966.00 689.09,975.31 682.89,981.10 C679.12,984.63 678.48,984.65 671.00,981.50 C661.70,977.59 660.46,978.05 656.06,987.06 C652.57,994.21 647.53,999.00 643.51,999.00 C636.94,999.00 635.81,995.07 638.93,983.08 C639.90,979.39 639.84,978.41 638.59,977.16 C637.34,975.91 636.43,975.86 633.18,976.83 C620.02,980.77 610.66,973.90 617.02,964.97 C619.18,961.94 624.14,959.00 627.09,959.00 C628.08,959.00 629.16,958.55 629.50,958.00 C629.84,957.45 632.76,957.00 636.00,957.00 C639.24,957.00 642.16,956.55 642.50,956.00 C642.84,955.45 643.76,955.00 644.55,955.00 C648.01,955.00 650.00,951.70 649.98,946.03 C649.94,938.49 648.49,932.82 646.10,930.88 C645.00,929.99 641.72,928.51 638.80,927.59 C635.89,926.67 630.80,924.78 627.50,923.39 C624.20,922.00 620.60,920.52 619.50,920.11 C618.40,919.70 614.10,917.70 609.94,915.68 C605.78,913.66 602.02,912.00 601.58,912.00 C600.20,912.00 585.88,902.81 578.00,896.88 C567.30,888.82 554.08,872.79 546.41,858.57 C544.42,854.87 542.67,854.54 531.83,855.82 C512.59,858.08 495.72,858.92 488.50,857.98 C484.65,857.48 477.92,857.05 473.55,857.03 C458.76,856.97 425.58,852.04 409.00,847.43 C399.59,844.82 377.11,836.88 373.76,834.98 C372.81,834.44 371.35,834.00 370.51,834.00 C369.68,834.00 369.00,833.65 369.00,833.22 C369.00,832.79 364.87,830.45 359.81,828.02 C354.72,825.57 348.75,821.80 346.42,819.55 C342.66,815.92 342.15,814.86 341.52,809.33 C340.91,803.90 341.09,802.80 343.03,800.18 C344.24,798.54 347.19,796.19 349.58,794.96 C355.18,792.08 360.01,792.67 370.64,797.52 C374.96,799.50 379.85,801.73 381.50,802.48 C383.15,803.23 386.30,804.39 388.50,805.05 C390.70,805.72 392.95,806.60 393.50,807.00 C395.05,808.15 406.43,812.00 408.29,812.00 C409.20,812.00 411.42,812.83 413.22,813.84 C415.02,814.86 418.75,816.01 421.50,816.41 C424.25,816.80 428.98,817.58 432.00,818.12 C435.02,818.67 441.10,819.51 445.50,819.99 C449.90,820.47 455.98,821.38 459.00,822.01 C471.82,824.68 530.05,825.35 531.60,822.84 C531.88,822.38 534.54,822.00 537.50,822.00 C540.46,822.00 543.16,821.55 543.50,821.00 C543.84,820.45 545.55,819.97 547.31,819.94 C551.64,819.85 561.01,817.73 563.68,816.23 C564.89,815.55 566.80,815.00 567.95,815.00 C569.09,815.00 570.81,814.59 571.76,814.08 C572.72,813.58 576.11,812.40 579.30,811.47 C582.50,810.54 586.32,808.77 587.80,807.54 C589.29,806.31 590.95,805.11 591.50,804.88 C597.56,802.37 606.62,792.81 609.75,785.64 C610.44,784.06 611.00,779.56 611.00,775.64 C611.00,768.74 610.85,768.32 606.68,763.00 C597.99,751.93 590.89,750.36 534.50,747.02 C524.60,746.43 515.83,745.67 515.00,745.33 C514.17,744.98 511.14,744.32 508.25,743.85 C505.36,743.38 500.64,742.58 497.75,742.08 C494.86,741.57 488.45,740.50 483.50,739.69 C471.25,737.70 456.32,733.12 445.50,728.04 C429.89,720.70 414.56,712.91 413.00,711.53 C412.17,710.80 409.73,709.47 407.58,708.58 C401.73,706.16 394.99,700.20 392.90,695.58 C390.22,689.68 390.38,681.74 393.25,678.79 C396.78,675.16 400.92,673.49 405.91,673.67 C410.41,673.85 414.10,675.46 427.00,682.89 C431.77,685.63 438.74,689.10 455.50,697.08 C460.64,699.52 472.70,703.49 481.00,705.48 C486.95,706.90 508.50,710.97 510.24,710.99 C511.74,711.01 515.83,703.33 516.98,698.32 C518.16,693.18 518.13,693.08 513.89,685.32 C506.98,672.71 505.94,670.20 503.40,660.22 C501.33,652.03 501.01,648.49 501.05,634.12 C501.11,615.77 503.11,596.67 505.11,595.43 C505.60,595.13 506.00,594.09 506.00,593.13 C506.00,591.32 508.54,585.26 512.01,578.80 C513.11,576.77 514.00,574.61 514.00,574.00 C514.00,573.40 514.90,571.04 516.00,568.76 C517.10,566.49 518.00,564.27 518.00,563.83 C518.00,562.61 523.76,553.45 530.47,544.01 C538.74,532.37 555.89,514.81 563.40,510.29 C566.75,508.27 569.72,506.32 570.00,505.95 C570.28,505.58 572.01,504.50 573.86,503.56 C575.71,502.61 580.01,499.93 583.41,497.60 C586.81,495.27 592.05,492.57 595.05,491.61 C598.05,490.65 602.30,489.06 604.50,488.07 C606.70,487.09 610.53,485.69 613.00,484.96 C615.47,484.24 617.95,483.33 618.50,482.95 C619.39,482.34 623.16,481.41 632.50,479.52 C634.15,479.18 637.30,478.44 639.50,477.87 C644.38,476.60 653.92,475.31 668.50,473.95 C683.98,472.52 702.56,474.07 717.70,478.06 C734.01,482.36 735.89,483.05 749.50,489.85 C766.38,498.27 774.40,503.27 783.78,511.22 C788.93,515.58 790.89,514.97 796.61,507.25 C803.52,497.94 806.12,493.77 810.85,484.50 C819.43,467.67 824.64,454.58 827.18,443.50 C827.68,441.30 828.53,437.70 829.06,435.50 C834.30,413.93 833.34,404.72 825.76,403.62 C823.97,403.36 818.22,402.69 813.00,402.12 C796.74,400.36 792.73,398.30 791.52,391.09 C790.56,385.46 791.47,383.50 796.61,380.03 C800.86,377.16 801.64,377.00 811.30,376.95 C818.80,376.92 822.43,376.45 825.00,375.20 C828.34,373.57 828.51,373.22 828.80,367.66 C828.97,364.45 828.69,361.31 828.18,360.67 C827.66,360.02 826.93,357.02 826.54,354.00 C826.15,350.98 824.86,346.48 823.66,344.00 C820.62,337.72 818.50,337.71 805.44,343.94 C799.59,346.72 794.16,349.00 793.37,349.00 C790.92,349.00 784.77,346.07 783.38,344.24 C782.66,343.28 782.06,340.25 782.07,337.50 C782.07,331.65 783.72,329.20 789.75,326.13 C792.02,324.97 795.09,322.90 796.58,321.51 C798.07,320.13 799.75,319.00 800.31,319.00 C802.24,319.00 807.00,312.63 807.00,310.05 C807.00,308.62 803.96,302.06 800.24,295.48 C796.53,288.89 791.94,280.48 790.06,276.79 C788.17,273.10 785.54,268.82 784.22,267.29 C782.89,265.75 779.89,261.58 777.55,258.00 C775.22,254.43 770.55,249.04 767.17,246.03 C763.79,243.02 757.67,236.50 753.57,231.53 C744.61,220.69 720.86,197.25 712.50,190.99 C697.00,179.39 686.01,168.87 678.56,158.50 C674.88,153.38 672.12,148.32 664.61,133.00 C663.94,131.62 662.18,128.25 660.69,125.50 C658.17,120.81 652.00,107.39 652.00,106.58 C652.00,105.60 637.02,80.36 631.42,71.90 C624.23,61.05 622.73,59.48 620.67,60.67 C617.12,62.72 611.21,72.55 606.33,84.50 C603.41,91.65 600.40,98.85 599.63,100.50 C594.77,110.95 591.86,118.82 590.56,125.03 C587.85,138.03 580.78,150.72 574.00,154.74 L 569.50 157.42 L 532.00 157.66 C493.22,157.92 481.29,158.77 455.12,163.13 C448.30,164.27 440.20,166.09 437.12,167.18 C434.03,168.26 429.02,169.81 426.00,170.62 C422.98,171.43 417.58,173.39 414.00,174.98 C402.59,180.06 389.62,185.16 385.66,186.12 C383.55,186.63 380.04,187.96 377.87,189.07 C369.08,193.55 355.98,193.66 349.34,189.30 C347.22,187.92 335.65,175.64 297.76,134.62 C277.22,112.38 272.29,108.53 269.18,112.29 C267.79,113.95 259.00,135.95 259.00,137.74 C259.00,138.49 258.28,140.50 257.39,142.21 C255.37,146.12 245.40,174.30 242.96,183.00 C241.96,186.57 240.37,191.98 239.44,195.00 C238.51,198.02 237.37,204.32 236.92,209.00 C236.46,213.68 235.82,219.07 235.49,221.00 C235.16,222.93 233.74,231.44 232.35,239.93 C230.91,248.68 228.99,256.89 227.91,258.91 C226.86,260.87 226.00,263.21 226.00,264.10 C226.00,267.02 222.28,277.50 218.59,284.95 C216.62,288.95 215.00,292.73 214.99,293.36 C214.99,293.99 214.26,295.85 213.37,297.50 C212.48,299.15 210.96,302.98 209.99,306.00 C209.01,309.02 206.81,315.33 205.08,320.00 C198.95,336.63 193.56,363.20 192.08,384.17 C190.82,402.04 192.89,431.71 195.53,433.65 C196.80,434.57 200.57,435.00 207.44,435.00 C219.16,435.00 232.56,437.29 235.30,439.77 C239.53,443.60 241.28,450.74 239.03,454.95 C237.88,457.10 232.67,460.33 228.47,461.50 C226.84,461.96 219.88,462.59 213.00,462.92 L 200.50 463.50 L 200.18 466.34 C199.78,469.80 208.39,492.18 211.52,495.82 L 213.73 498.38 L 223.61 493.53 C229.05,490.86 235.47,488.36 237.89,487.98 C243.80,487.03 249.89,488.54 253.35,491.81 C256.02,494.33 256.16,494.87 255.61,500.28 C255.29,503.45 254.35,507.37 253.51,508.97 C252.00,511.89 243.72,518.25 234.75,523.37 C231.09,525.46 230.00,526.65 230.00,528.56 C230.00,532.27 234.05,537.64 243.14,546.00 C247.62,550.12 253.12,555.43 255.35,557.79 C257.58,560.16 262.53,564.14 266.34,566.66 C270.16,569.17 275.35,572.81 277.89,574.75 C282.18,578.02 287.30,580.81 302.50,588.14 C305.80,589.74 309.17,591.47 310.00,592.00 C320.38,598.68 326.48,601.14 347.00,606.93 C353.33,608.71 360.30,610.76 362.50,611.49 C371.72,614.52 385.24,617.23 402.50,619.51 C409.10,620.38 417.24,621.52 420.58,622.05 C423.93,622.57 437.36,623.00 450.43,623.00 C472.99,623.00 474.34,623.11 477.15,625.11 C482.23,628.72 485.00,634.20 485.00,640.63 C485.00,646.14 484.85,646.45 479.75,651.53 C474.57,656.68 474.38,656.77 465.75,657.98 C455.86,659.37 429.27,658.86 416.50,657.05 C412.10,656.42 404.86,655.55 400.40,655.11 C395.95,654.67 391.84,654.02 391.28,653.67 C390.71,653.32 385.58,652.08 379.87,650.92 C374.17,649.75 366.64,648.22 363.15,647.50 C359.66,646.79 356.31,645.71 355.70,645.10 C355.10,644.50 353.22,644.00 351.54,644.00 C349.85,644.00 346.00,643.06 342.99,641.91 C339.97,640.77 336.15,639.48 334.50,639.06 C331.02,638.16 312.98,632.05 305.10,629.09 C299.40,626.95 293.17,626.16 291.27,627.34 C288.33,629.15 279.83,646.42 271.98,666.50 C260.88,694.94 256.40,708.59 252.62,725.52 C251.77,729.36 250.36,734.97 249.50,738.00 C248.64,741.03 246.56,751.59 244.89,761.47 C243.21,771.36 241.61,779.82 241.33,780.28 C240.75,781.21 240.08,785.23 237.17,805.00 C232.96,833.71 232.01,847.46 231.07,893.17 C230.14,938.39 230.20,941.33 233.39,996.50 C233.83,1004.05 234.84,1011.70 236.52,1020.25 L 237.26 1024.00 L 198.32 1024.00 ZM 694.50 911.29 C696.70,911.50 708.67,911.74 721.10,911.83 C755.51,912.09 775.48,908.49 812.50,895.38 C830.85,888.87 852.51,876.11 864.86,864.53 C880.90,849.47 889.95,838.08 899.11,821.41 C902.99,814.34 903.98,809.73 901.89,808.43 C899.81,807.14 892.27,807.92 887.10,809.96 C881.06,812.34 875.33,812.54 868.88,810.58 C863.76,809.02 856.90,805.73 852.85,802.87 C849.55,800.54 842.82,800.43 836.88,802.59 C829.82,805.16 807.86,805.70 798.81,803.52 C778.90,798.72 769.57,790.85 761.04,771.65 C757.09,762.77 756.04,755.69 757.15,745.60 C758.18,736.26 758.32,735.69 761.71,727.02 C764.46,719.99 766.84,716.41 774.33,708.05 L 779.22 702.60 L 778.55 695.86 C777.78,687.96 778.43,686.30 786.73,675.26 C800.60,656.78 805.51,631.67 801.53,599.54 C800.07,587.77 799.35,585.41 791.72,567.00 C787.66,557.21 775.02,538.96 766.63,530.78 C756.60,521.00 735.42,509.05 723.66,506.55 C720.27,505.83 716.38,504.75 715.00,504.15 C704.85,499.72 677.22,497.85 659.37,500.38 C653.25,501.25 646.96,502.44 645.40,503.04 C643.83,503.64 639.51,504.76 635.80,505.54 C620.96,508.66 593.15,520.99 581.00,529.85 C571.49,536.77 555.59,552.69 550.39,560.50 C536.90,580.73 531.95,592.13 528.01,611.95 C524.68,628.71 524.62,636.11 527.71,651.00 C529.48,659.50 531.30,663.53 537.90,673.50 C546.26,686.13 546.75,689.54 541.94,701.99 C539.98,707.09 538.85,709.94 539.80,711.60 C541.02,713.72 545.62,713.90 556.20,714.37 C571.58,715.06 573.82,715.35 588.50,718.48 C603.59,721.70 610.12,724.27 620.51,731.11 C637.74,742.43 646.97,762.56 644.08,782.50 C641.88,797.65 637.75,805.19 623.62,819.84 C617.94,825.73 605.28,835.26 601.25,836.68 C600.29,837.02 597.70,838.07 595.50,839.02 C587.27,842.56 578.12,846.00 576.91,846.00 C574.98,846.00 572.00,849.10 572.00,851.11 C572.00,853.59 588.53,869.87 598.07,876.79 C616.93,890.47 632.93,898.94 647.50,902.94 C649.15,903.39 651.85,904.31 653.50,904.97 C656.16,906.03 683.85,910.31 694.50,911.29 ZM 509.00 508.35 C503.83,510.35 489.69,511.41 486.00,510.08 C484.62,509.58 480.80,508.38 477.50,507.42 C474.20,506.46 469.59,504.58 467.25,503.24 C462.03,500.26 455.01,492.46 454.97,489.61 C454.95,488.45 454.28,486.63 453.47,485.56 C452.57,484.37 452.00,481.38 452.00,477.87 C452.00,474.71 451.55,471.84 451.00,471.50 C447.62,469.41 452.31,459.00 456.63,459.00 C457.87,459.00 459.16,458.55 459.50,458.00 C461.55,454.68 472.00,458.95 472.00,463.11 C472.00,467.35 482.57,479.37 487.82,481.11 C491.24,482.23 493.99,481.79 502.29,478.75 C504.91,477.79 511.00,471.50 511.00,469.75 C511.00,469.32 512.17,467.11 513.60,464.85 C515.97,461.09 516.16,459.98 515.84,452.22 C515.56,445.20 515.17,443.52 513.62,442.61 C512.59,442.00 507.95,438.83 503.31,435.57 C492.19,427.75 489.98,424.09 489.88,413.37 C489.81,404.35 491.18,400.81 496.58,396.07 C502.67,390.72 509.82,388.29 523.50,386.93 C535.25,385.76 545.90,385.88 548.46,387.22 C556.62,391.49 561.00,397.79 561.00,405.26 C561.00,409.25 559.30,416.60 557.93,418.50 C557.54,419.05 555.82,422.10 554.11,425.27 C549.48,433.86 549.98,444.44 555.32,451.21 C556.06,452.16 558.88,453.89 561.58,455.06 C565.64,456.82 567.72,457.10 573.46,456.64 C581.28,456.01 583.94,454.52 588.35,448.29 C590.62,445.07 591.37,442.59 592.10,435.88 C593.02,427.38 595.57,420.03 597.63,420.01 C598.25,420.01 599.32,419.33 600.00,418.50 C601.63,416.53 608.40,416.56 611.43,418.55 C612.73,419.40 615.06,421.92 616.60,424.15 C619.24,427.95 619.44,428.99 619.82,440.42 L 620.23 452.63 L 616.70 460.26 C611.74,471.01 599.27,483.64 592.00,485.29 C590.62,485.61 587.47,486.40 585.00,487.06 C578.34,488.83 561.61,488.37 557.68,486.31 C555.93,485.39 552.70,484.31 550.50,483.91 C548.30,483.51 544.89,482.86 542.91,482.48 C539.68,481.86 539.09,482.11 536.91,484.99 C528.00,496.80 518.67,504.61 509.00,508.35 ZM 804.25 772.15 C808.38,773.60 811.63,773.92 819.50,773.62 C832.67,773.13 837.24,772.08 838.49,769.24 C839.03,768.01 839.87,767.00 840.35,767.00 C840.84,767.00 843.99,764.52 847.37,761.48 C854.94,754.66 853.81,755.82 860.94,747.58 C865.83,741.93 867.04,739.81 867.52,736.08 C867.85,733.56 868.54,730.47 869.06,729.20 C869.58,727.94 870.00,722.57 870.00,717.27 C870.00,701.57 865.56,687.70 857.10,677.00 C846.09,663.07 833.84,652.00 829.43,652.00 C826.58,652.00 825.44,653.94 822.90,663.13 C821.84,666.93 820.09,671.71 818.99,673.76 C816.46,678.49 816.49,679.37 819.51,685.85 C822.41,692.07 822.79,699.54 820.46,704.44 C818.95,707.63 817.11,709.56 803.70,722.07 C794.49,730.66 789.95,739.62 789.79,749.54 C789.70,755.18 790.16,757.45 792.23,761.50 C795.48,767.86 797.74,769.86 804.25,772.15 ZM 620.50 656.50 C607.13,657.77 605.29,657.78 600.26,656.56 C590.14,654.11 572.05,642.55 564.48,633.70 C559.74,628.17 555.00,618.47 555.00,614.31 C555.00,608.68 557.49,604.28 562.46,601.13 C567.06,598.21 575.94,593.68 581.50,591.41 C598.00,584.68 605.50,582.60 613.50,582.56 C620.36,582.52 620.63,582.61 627.00,587.45 C636.95,595.00 656.74,614.88 660.09,620.69 C663.81,627.16 664.79,634.16 662.68,639.22 C661.42,642.24 659.87,643.55 654.10,646.45 C645.73,650.66 628.89,655.70 620.50,656.50 ZM 772.43 858.47 C769.03,859.41 761.18,860.27 754.00,860.51 C740.56,860.94 730.79,859.47 718.00,855.08 C702.78,849.86 685.30,837.36 677.03,825.77 C663.03,806.15 656.52,769.64 665.71,762.25 C671.14,757.89 680.71,760.59 683.44,767.27 C684.17,769.05 685.08,773.61 685.48,777.42 C686.25,784.91 686.43,785.43 692.17,797.85 C704.32,824.08 720.61,834.33 750.00,834.24 C763.57,834.20 770.24,832.54 777.16,827.48 C784.92,821.80 786.59,821.01 790.82,821.00 C796.24,821.00 798.55,822.22 800.60,826.20 C802.52,829.91 801.95,836.55 799.34,840.76 C794.39,848.74 784.76,855.09 772.43,858.47 ZM 648.20 367.95 C640.75,369.42 639.15,369.25 633.52,366.32 C627.03,362.94 614.00,351.23 614.00,348.77 C614.00,347.72 613.60,346.11 613.10,345.18 C611.78,342.70 613.59,320.11 615.39,316.50 C616.22,314.85 618.71,311.73 620.93,309.57 C624.59,305.99 625.54,305.59 631.23,305.21 C634.68,304.97 637.93,304.38 638.45,303.89 C640.02,302.42 649.66,302.88 654.23,304.65 C661.95,307.62 670.81,317.76 673.54,326.75 C676.21,335.55 674.91,346.16 670.24,353.85 C667.78,357.89 658.58,365.85 655.67,366.46 C654.47,366.70 651.12,367.38 648.20,367.95 ZM 391.50 404.74 C383.64,407.78 371.90,407.14 364.45,403.27 C360.31,401.11 355.00,393.30 355.00,389.35 C355.00,388.32 354.10,385.79 353.00,383.73 C350.65,379.35 348.81,367.93 349.64,362.84 C350.24,359.13 357.65,348.31 360.72,346.65 C361.70,346.12 364.11,344.43 366.07,342.90 C368.98,340.63 371.07,339.99 377.32,339.42 C384.61,338.76 385.32,338.88 391.44,341.90 C396.49,344.38 398.86,346.37 402.41,351.09 C408.95,359.79 411.28,370.73 409.10,382.45 C407.41,391.55 399.41,401.68 391.50,404.74 ZM 699.14 626.48 C697.14,626.84 694.60,627.30 693.50,627.50 C690.50,628.04 682.72,625.59 679.21,623.00 C674.82,619.75 673.50,615.79 673.52,605.92 C673.54,596.15 674.62,593.74 681.03,589.09 C686.39,585.21 692.45,584.41 699.56,586.65 C708.59,589.50 712.98,596.15 712.99,607.01 C713.00,615.18 705.83,625.27 699.14,626.48 ZM 596.43 632.61 C602.60,636.76 605.83,636.88 621.85,633.57 C633.75,631.12 636.63,629.57 635.57,626.23 C634.77,623.70 618.53,607.33 615.04,605.52 C611.78,603.83 605.34,605.16 592.90,610.06 C583.14,613.91 580.00,615.73 580.00,617.51 C580.00,619.14 589.80,628.14 596.43,632.61 ZM 581.05 583.45 C577.48,586.94 576.40,587.41 571.27,587.74 C566.81,588.03 564.79,587.67 562.38,586.15 C554.38,581.12 555.47,564.32 564.24,557.63 C570.26,553.04 582.06,554.52 585.15,560.26 C589.14,567.68 587.46,577.20 581.05,583.45 Z" fill="rgba(92,52,12,1)"/>
<path d="M 694.50 911.29 C683.85,910.31 656.16,906.03 653.50,904.97 C651.85,904.31 649.15,903.39 647.50,902.94 C632.93,898.94 616.93,890.47 598.07,876.79 C588.53,869.87 572.00,853.59 572.00,851.11 C572.00,849.10 574.98,846.00 576.91,846.00 C578.12,846.00 587.27,842.56 595.50,839.02 C597.70,838.07 600.29,837.02 601.25,836.68 C605.28,835.26 617.94,825.73 623.62,819.84 C637.75,805.19 641.88,797.65 644.08,782.50 C646.97,762.56 637.74,742.43 620.51,731.11 C610.12,724.27 603.59,721.70 588.50,718.48 C573.82,715.35 571.58,715.06 556.20,714.37 C545.62,713.90 541.02,713.72 539.80,711.60 C538.85,709.94 539.98,707.09 541.94,701.99 C546.75,689.54 546.26,686.13 537.90,673.50 C531.30,663.53 529.48,659.50 527.71,651.00 C524.62,636.11 524.68,628.71 528.01,611.95 C531.95,592.13 536.90,580.73 550.39,560.50 C555.59,552.69 571.49,536.77 581.00,529.85 C593.15,520.99 620.96,508.66 635.80,505.54 C639.51,504.76 643.83,503.64 645.40,503.04 C646.96,502.44 653.25,501.25 659.37,500.38 C677.22,497.85 704.85,499.72 715.00,504.15 C716.38,504.75 720.27,505.83 723.66,506.55 C735.42,509.05 756.60,521.00 766.63,530.78 C775.02,538.96 787.66,557.21 791.72,567.00 C799.35,585.41 800.07,587.77 801.53,599.54 C805.51,631.67 800.60,656.78 786.73,675.26 C778.43,686.30 777.78,687.96 778.55,695.86 L 779.22 702.60 L 774.33 708.05 C766.84,716.41 764.46,719.99 761.71,727.02 C758.32,735.69 758.18,736.26 757.15,745.60 C756.04,755.69 757.09,762.77 761.04,771.65 C769.57,790.85 778.90,798.72 798.81,803.52 C807.86,805.70 829.82,805.16 836.88,802.59 C842.82,800.43 849.55,800.54 852.85,802.87 C856.90,805.73 863.76,809.02 868.88,810.58 C875.33,812.54 881.06,812.34 887.10,809.96 C892.27,807.92 899.81,807.14 901.89,808.43 C903.98,809.73 902.99,814.34 899.11,821.41 C889.95,838.08 880.90,849.47 864.86,864.53 C852.51,876.11 830.85,888.87 812.50,895.38 C775.48,908.49 755.51,912.09 721.10,911.83 C708.67,911.74 696.70,911.50 694.50,911.29 ZM 235.54 220.67 C235.88,218.51 236.48,213.43 236.92,209.00 C237.37,204.32 238.51,198.02 239.44,195.00 C240.37,191.98 241.96,186.57 242.96,183.00 C245.40,174.30 255.37,146.12 257.39,142.21 C258.28,140.50 259.00,138.49 259.00,137.74 C259.00,135.95 267.79,113.95 269.18,112.29 C272.29,108.53 277.22,112.38 297.76,134.62 C335.65,175.64 347.22,187.92 349.34,189.30 C355.98,193.66 369.08,193.55 377.87,189.07 C380.04,187.96 383.55,186.63 385.66,186.12 C389.62,185.16 402.59,180.06 414.00,174.98 C417.58,173.39 422.98,171.43 426.00,170.62 C429.02,169.81 434.03,168.26 437.12,167.18 C440.20,166.09 448.30,164.27 455.12,163.13 C481.29,158.77 493.22,157.92 532.00,157.66 L 569.50 157.42 L 574.00 154.74 C580.78,150.72 587.85,138.03 590.56,125.03 C591.86,118.82 594.77,110.95 599.63,100.50 C600.40,98.85 603.41,91.65 606.33,84.50 C611.21,72.55 617.12,62.72 620.67,60.67 C622.73,59.48 624.23,61.05 631.42,71.90 C637.02,80.36 652.00,105.60 652.00,106.58 C652.00,107.39 658.17,120.81 660.69,125.50 C662.18,128.25 663.94,131.62 664.61,133.00 C672.12,148.32 674.88,153.38 678.56,158.50 C686.01,168.87 697.00,179.39 712.50,190.99 C720.86,197.25 744.61,220.69 753.57,231.53 C757.67,236.50 763.79,243.02 767.17,246.03 C770.55,249.04 775.22,254.43 777.55,258.00 C779.81,261.45 782.69,265.47 784.08,267.12 C783.88,267.03 783.70,267.00 783.50,267.00 C782.94,267.00 781.94,266.13 781.27,265.06 C780.60,263.99 777.32,259.94 773.98,256.06 C769.62,250.99 767.23,249.00 765.53,249.00 C764.22,249.00 759.52,251.23 755.08,253.95 C747.43,258.65 738.62,261.99 721.00,266.90 C704.31,271.54 683.08,272.58 652.50,270.25 C634.67,268.90 632.49,268.47 598.00,259.68 C594.97,258.90 590.03,257.06 587.00,255.58 C583.97,254.10 578.12,251.56 574.00,249.94 C558.41,243.83 535.83,225.51 526.61,211.50 C512.86,190.60 509.09,182.07 508.59,170.72 C508.22,162.13 505.81,159.00 499.58,158.99 C486.44,158.97 452.14,164.51 434.50,169.51 C431.20,170.45 426.81,171.62 424.73,172.12 C422.66,172.61 418.16,174.32 414.73,175.91 C406.20,179.88 396.84,183.70 388.50,186.63 C384.65,187.98 379.70,189.90 377.50,190.90 C370.74,193.98 363.49,195.12 358.20,193.94 C352.22,192.60 345.97,188.95 342.50,184.77 C341.00,182.97 337.69,179.25 335.14,176.50 C317.79,157.80 301.32,140.25 294.19,132.87 C289.61,128.13 285.17,123.26 284.32,122.05 C282.02,118.76 275.00,114.00 272.46,114.00 C269.86,114.00 267.85,116.74 265.61,123.32 C264.73,125.91 261.93,133.51 259.39,140.19 C256.84,146.88 254.39,153.51 253.93,154.93 C253.47,156.34 251.45,162.00 249.44,167.50 C247.43,173.00 245.09,180.20 244.26,183.50 C243.42,186.80 241.45,193.25 239.87,197.83 C238.29,202.41 237.00,207.92 237.00,210.07 C237.00,212.21 236.56,215.89 236.03,218.24 C235.91,218.75 235.74,219.59 235.54,220.67 ZM 459.40 623.01 C456.86,623.00 453.89,623.00 450.43,623.00 C437.36,623.00 423.93,622.57 420.58,622.05 C417.24,621.52 409.10,620.38 402.50,619.51 C385.24,617.23 371.72,614.52 362.50,611.49 C360.30,610.76 353.33,608.71 347.00,606.93 C326.48,601.14 320.38,598.68 310.00,592.00 C309.17,591.47 305.80,589.74 302.50,588.14 C287.30,580.81 282.18,578.02 277.89,574.75 C275.35,572.81 270.16,569.17 266.34,566.66 C262.53,564.14 257.58,560.16 255.35,557.79 C253.12,555.43 247.62,550.12 243.14,546.00 C234.05,537.64 230.00,532.27 230.00,528.56 C230.00,526.65 231.09,525.46 234.75,523.37 C243.72,518.25 252.00,511.89 253.51,508.97 C254.35,507.37 255.29,503.45 255.61,500.28 C256.16,494.87 256.02,494.33 253.35,491.81 C249.89,488.54 243.80,487.03 237.89,487.98 C235.47,488.36 229.05,490.86 223.61,493.53 L 213.73 498.38 L 211.52 495.82 C208.39,492.18 199.78,469.80 200.18,466.34 L 200.50 463.50 L 213.00 462.92 C219.88,462.59 226.84,461.96 228.47,461.50 C232.67,460.33 237.88,457.10 239.03,454.95 C241.28,450.74 239.53,443.60 235.30,439.77 C232.56,437.29 219.16,435.00 207.44,435.00 C200.57,435.00 196.80,434.57 195.53,433.65 C192.89,431.71 190.82,402.04 192.08,384.17 C193.56,363.20 198.95,336.63 205.08,320.00 C206.81,315.33 209.01,309.02 209.99,306.00 C210.96,302.98 212.48,299.15 213.37,297.50 C214.26,295.85 214.99,293.99 214.99,293.36 C215.00,292.73 216.62,288.95 218.59,284.95 C222.28,277.50 226.00,267.02 226.00,264.10 C226.00,263.21 226.86,260.87 227.91,258.91 C228.64,257.54 229.76,253.32 230.86,248.01 C229.91,253.04 229.02,257.12 228.52,258.50 C227.73,260.70 227.07,263.50 227.04,264.72 C226.98,267.81 224.42,275.19 220.38,283.90 C217.25,290.65 215.59,294.73 210.02,309.50 C206.38,319.16 199.66,341.91 197.90,350.50 C193.99,369.66 192.40,401.09 194.33,421.17 C194.89,426.92 195.09,429.99 196.74,431.63 C198.71,433.59 202.75,433.47 211.95,433.42 C224.42,433.35 226.37,433.11 228.78,431.33 C232.88,428.31 242.89,422.90 246.40,421.81 C264.10,416.32 279.58,414.70 293.25,416.91 C296.96,417.51 303.26,418.52 307.25,419.15 C311.24,419.79 314.93,420.69 315.45,421.15 C315.97,421.62 318.31,422.00 320.64,422.00 C322.97,422.00 325.16,422.45 325.50,423.00 C325.84,423.55 327.30,424.00 328.75,424.00 C333.16,424.00 350.70,434.72 360.44,443.38 C381.87,462.41 386.76,469.39 392.07,488.50 C396.08,502.92 397.28,510.68 396.59,517.54 C394.10,542.37 377.51,568.08 356.65,579.45 C347.58,584.39 332.18,590.29 325.31,591.45 C319.46,592.44 318.21,594.24 321.73,596.59 C324.75,598.60 343.32,605.00 346.14,605.00 C347.10,605.00 348.13,605.40 348.43,605.88 C348.73,606.37 350.22,607.00 351.74,607.27 C353.26,607.55 357.20,608.54 360.50,609.47 C367.90,611.55 369.82,612.05 373.00,612.66 C374.38,612.93 376.40,613.54 377.50,614.02 C378.60,614.50 381.30,615.11 383.50,615.39 C385.70,615.66 390.20,616.36 393.50,616.95 C396.80,617.54 402.98,618.45 407.23,618.96 C411.48,619.48 415.98,620.49 417.23,621.20 C418.89,622.15 426.83,622.59 446.97,622.84 C451.94,622.90 456.03,622.95 459.40,623.01 ZM 620.50 656.50 C628.89,655.70 645.73,650.66 654.10,646.45 C659.87,643.55 661.42,642.24 662.68,639.22 C664.79,634.16 663.81,627.16 660.09,620.69 C656.74,614.88 636.95,595.00 627.00,587.45 C620.63,582.61 620.36,582.52 613.50,582.56 C605.50,582.60 598.00,584.68 581.50,591.41 C575.94,593.68 567.06,598.21 562.46,601.13 C557.49,604.28 555.00,608.68 555.00,614.31 C555.00,618.47 559.74,628.17 564.48,633.70 C572.05,642.55 590.14,654.11 600.26,656.56 C605.29,657.78 607.13,657.77 620.50,656.50 ZM 772.43 858.47 C784.76,855.09 794.39,848.74 799.34,840.76 C801.95,836.55 802.52,829.91 800.60,826.20 C798.55,822.22 796.24,821.00 790.82,821.00 C786.59,821.01 784.92,821.80 777.16,827.48 C770.24,832.54 763.57,834.20 750.00,834.24 C720.61,834.33 704.32,824.08 692.17,797.85 C686.43,785.43 686.25,784.91 685.48,777.42 C685.08,773.61 684.17,769.05 683.44,767.27 C680.71,760.59 671.14,757.89 665.71,762.25 C656.52,769.64 663.03,806.15 677.03,825.77 C685.30,837.36 702.78,849.86 718.00,855.08 C730.79,859.47 740.56,860.94 754.00,860.51 C761.18,860.27 769.03,859.41 772.43,858.47 ZM 699.14 626.48 C705.83,625.27 713.00,615.18 712.99,607.01 C712.98,596.15 708.59,589.50 699.56,586.65 C692.45,584.41 686.39,585.21 681.03,589.09 C674.62,593.74 673.54,596.15 673.52,605.92 C673.50,615.79 674.82,619.75 679.21,623.00 C682.72,625.59 690.50,628.04 693.50,627.50 C694.60,627.30 697.14,626.84 699.14,626.48 ZM 596.43 632.61 C589.80,628.14 580.00,619.14 580.00,617.51 C580.00,615.73 583.14,613.91 592.90,610.06 C605.34,605.16 611.78,603.83 615.04,605.52 C618.53,607.33 634.77,623.70 635.57,626.23 C636.63,629.57 633.75,631.12 621.85,633.57 C605.83,636.88 602.60,636.76 596.43,632.61 ZM 581.05 583.45 C587.46,577.20 589.14,567.68 585.15,560.26 C582.06,554.52 570.26,553.04 564.24,557.63 C555.47,564.32 554.38,581.12 562.38,586.15 C564.79,587.67 566.81,588.03 571.27,587.74 C576.40,587.41 577.48,586.94 581.05,583.45 ZM 509.05 857.91 C515.83,857.49 523.61,856.78 531.83,855.82 C542.67,854.54 544.42,854.87 546.41,858.57 C554.08,872.79 567.30,888.82 578.00,896.88 C585.88,902.81 600.20,912.00 601.58,912.00 C602.02,912.00 605.78,913.66 609.94,915.68 C614.10,917.70 618.40,919.70 619.50,920.11 C620.60,920.52 624.20,922.00 627.50,923.39 C630.80,924.78 635.89,926.67 638.80,927.59 C641.72,928.51 645.00,929.99 646.10,930.88 C648.49,932.82 649.94,938.49 649.98,946.03 C650.00,951.70 648.01,955.00 644.55,955.00 C643.76,955.00 642.84,955.45 642.50,956.00 C642.16,956.55 639.24,957.00 636.00,957.00 C632.76,957.00 629.84,957.45 629.50,958.00 C629.16,958.55 628.08,959.00 627.09,959.00 C624.14,959.00 619.18,961.94 617.02,964.97 C610.66,973.90 620.02,980.77 633.18,976.83 C636.43,975.86 637.34,975.91 638.59,977.16 C639.84,978.41 639.90,979.39 638.93,983.08 C635.81,995.07 636.94,999.00 643.51,999.00 C647.53,999.00 652.57,994.21 656.06,987.06 C660.46,978.05 661.70,977.59 671.00,981.50 C678.48,984.65 679.12,984.63 682.89,981.10 C689.09,975.31 685.09,966.00 673.82,959.99 C669.59,957.74 669.36,957.16 668.46,946.86 C667.85,939.92 667.98,939.02 669.89,937.11 C672.49,934.51 672.55,934.51 684.64,937.17 C697.79,940.06 710.50,940.81 727.88,939.72 C737.90,939.09 742.30,938.78 744.31,940.82 C745.91,942.46 745.97,945.62 746.14,951.37 C746.37,959.20 746.18,960.39 744.45,961.58 C743.38,962.32 742.05,963.28 741.50,963.72 C740.95,964.15 736.09,966.71 730.70,969.42 C720.21,974.68 715.99,978.54 716.02,982.83 C716.08,990.13 723.74,992.92 731.94,988.62 C737.16,985.89 740.46,985.32 741.47,986.96 C741.80,987.49 741.59,991.77 741.00,996.47 C740.32,1001.99 740.16,1005.13 740.96,1006.89 C740.20,1005.56 740.00,1003.45 740.00,1000.12 C740.00,997.37 739.61,994.88 739.13,994.58 C738.66,994.29 738.49,992.91 738.75,991.52 C739.15,989.45 738.84,989.00 737.07,989.00 C735.88,989.00 733.50,989.73 731.78,990.61 C727.94,992.60 720.76,992.00 717.96,989.46 C716.52,988.16 716.00,986.39 716.00,982.74 C716.00,978.59 716.43,977.44 718.65,975.64 C722.12,972.83 729.27,968.55 735.50,965.55 C743.61,961.65 744.65,960.22 744.89,952.52 C745.04,947.93 744.64,945.10 743.61,943.52 C742.11,941.23 742.02,941.23 719.30,941.29 C701.19,941.34 695.37,941.03 691.00,939.76 C682.54,937.29 671.97,936.43 670.90,938.12 C670.42,938.88 670.02,942.98 670.02,947.24 L 670.00 954.98 L 676.24 959.52 C683.43,964.75 686.99,969.92 686.99,975.17 C687.00,978.23 686.37,979.33 683.11,981.92 C678.79,985.34 673.84,985.95 670.56,983.47 C669.49,982.66 666.97,982.00 664.96,982.00 C661.54,982.00 660.99,982.46 656.70,988.91 C651.98,996.01 646.59,1001.00 643.64,1001.00 C641.77,1001.00 637.88,999.02 636.77,997.50 C635.66,996.00 635.85,987.21 637.00,986.50 C637.55,986.16 638.00,984.36 638.00,982.51 C638.00,978.49 636.09,977.54 630.98,979.00 C624.48,980.87 620.12,980.27 616.92,977.08 C613.03,973.18 612.93,968.18 616.68,963.97 C619.61,960.68 624.29,958.00 627.09,958.00 C628.08,958.00 629.16,957.55 629.50,957.00 C629.84,956.45 632.76,956.00 636.00,956.00 C639.24,956.00 642.16,955.55 642.50,955.00 C642.84,954.45 643.94,954.00 644.95,954.00 C645.96,954.00 647.06,953.29 647.39,952.42 C648.35,949.91 648.10,935.05 647.06,933.11 C646.55,932.15 644.18,930.77 641.81,930.05 C634.74,927.90 628.57,925.70 627.50,924.95 C626.95,924.56 625.38,923.92 624.00,923.52 C619.62,922.26 607.12,916.33 592.54,908.59 C589.82,907.15 586.44,904.95 585.04,903.72 C583.64,902.48 579.80,899.40 576.50,896.86 C565.31,888.28 554.00,875.35 547.70,863.94 L 544.14 857.50 L 536.32 857.52 C532.02,857.53 520.17,857.69 510.00,857.89 C509.69,857.90 509.37,857.90 509.05,857.91 ZM 812.05 482.13 C811.66,482.91 811.26,483.70 810.85,484.50 C806.12,493.77 803.52,497.94 796.61,507.25 C790.89,514.97 788.93,515.58 783.78,511.22 C774.40,503.27 766.38,498.27 749.50,489.85 C735.89,483.05 734.01,482.36 717.70,478.06 C702.56,474.07 683.98,472.52 668.50,473.95 C653.92,475.31 644.38,476.60 639.50,477.87 C637.30,478.44 634.15,479.18 632.50,479.52 C623.16,481.41 619.39,482.34 618.50,482.95 C617.95,483.33 615.47,484.24 613.00,484.96 C610.53,485.69 606.70,487.09 604.50,488.07 C602.30,489.06 598.05,490.65 595.05,491.61 C592.05,492.57 586.81,495.27 583.41,497.60 C586.81,495.27 591.99,492.58 594.91,491.63 C597.83,490.67 601.96,488.79 604.09,487.44 C606.22,486.10 608.84,485.00 609.92,485.00 C611.00,485.00 612.16,484.55 612.50,484.00 C612.84,483.45 614.13,483.00 615.36,483.00 C616.59,483.00 618.03,482.61 618.55,482.14 C619.77,481.03 628.11,479.00 631.44,479.00 C632.85,479.00 634.00,478.55 634.00,478.00 C634.00,477.45 635.80,477.00 638.00,477.00 C640.20,477.00 642.00,476.55 642.00,476.00 C642.00,475.43 644.98,475.00 648.94,475.00 C652.76,475.00 656.16,474.55 656.50,474.00 C656.84,473.45 659.82,473.00 663.12,473.00 C666.43,473.00 669.89,472.60 670.82,472.12 C672.76,471.11 705.72,472.93 710.00,474.29 C710.83,474.55 713.30,475.25 715.50,475.84 C724.94,478.39 736.81,482.25 740.74,484.05 C743.07,485.12 745.17,486.00 745.40,486.00 C745.63,486.00 748.90,487.73 752.66,489.85 C756.42,491.97 762.12,495.16 765.33,496.93 C768.54,498.70 774.89,502.82 779.45,506.08 C788.45,512.52 791.05,513.19 793.52,509.75 L 799.95 500.78 C802.60,497.08 805.76,492.15 806.99,489.80 C808.21,487.46 810.25,484.30 811.53,482.78 C811.70,482.57 811.88,482.36 812.05,482.13 ZM 804.25 772.15 C797.74,769.86 795.48,767.86 792.23,761.50 C790.16,757.45 789.70,755.18 789.79,749.54 C789.95,739.62 794.49,730.66 803.70,722.07 C817.11,709.56 818.95,707.63 820.46,704.44 C822.79,699.54 822.41,692.07 819.51,685.85 C816.49,679.37 816.46,678.49 818.99,673.76 C820.09,671.71 821.84,666.93 822.90,663.13 C825.44,653.94 826.58,652.00 829.43,652.00 C833.84,652.00 846.09,663.07 857.10,677.00 C863.12,684.62 867.11,693.85 868.91,704.20 C868.80,703.72 868.68,703.32 868.56,703.00 C867.82,701.08 866.65,697.92 865.95,696.00 C861.84,684.61 854.56,674.50 841.90,662.59 C830.94,652.27 826.68,652.37 824.47,663.00 C824.07,664.92 822.67,668.92 821.37,671.87 C818.37,678.68 818.40,680.85 821.56,687.54 C823.69,692.04 824.01,693.77 823.43,697.73 C822.37,705.06 820.60,707.64 808.50,719.50 C794.27,733.45 791.63,738.13 791.56,749.50 C791.53,755.44 791.99,758.40 793.37,761.00 C795.71,765.40 799.96,770.00 801.70,770.00 C802.90,770.00 804.65,770.75 809.00,773.13 C810.51,773.96 822.51,773.73 829.75,772.93 C827.12,773.25 823.76,773.47 819.50,773.62 C811.63,773.92 808.38,773.60 804.25,772.15 ZM 746.90 1009.00 C751.82,1008.92 752.92,1007.42 758.47,994.50 C760.59,989.55 763.03,984.93 763.89,984.22 C765.72,982.73 772.82,983.50 776.90,985.63 C778.33,986.38 781.37,986.99 783.65,986.99 C787.14,987.00 788.28,986.45 790.90,983.47 C795.25,978.51 795.06,974.83 790.23,969.99 C786.46,966.23 776.00,962.00 770.44,962.00 C768.58,962.00 767.88,961.22 767.05,958.25 C765.59,952.97 765.72,939.77 767.26,937.66 C768.12,936.49 773.00,934.98 782.51,932.95 C802.87,928.60 803.80,928.37 811.81,925.64 C816.93,923.90 819.23,923.51 819.49,924.33 C819.68,924.94 820.67,931.41 821.72,938.94 C820.07,928.58 818.73,924.88 817.03,925.65 C816.19,926.03 809.42,927.86 802.00,929.72 C794.58,931.58 786.31,933.75 783.64,934.55 C780.96,935.35 777.76,936.00 776.53,936.00 C775.30,936.00 772.88,936.49 771.15,937.10 L 768.00 938.20 L 768.00 948.48 C768.00,955.52 768.39,959.06 769.25,959.72 C769.94,960.24 774.17,961.70 778.66,962.95 C795.48,967.64 800.37,977.20 790.43,985.93 C787.31,988.67 786.52,988.90 782.24,988.35 C779.63,988.01 775.98,987.12 774.13,986.37 C772.27,985.61 769.47,985.00 767.89,985.00 C764.60,985.00 762.04,988.50 758.05,998.50 C754.06,1008.48 753.54,1009.00 747.42,1009.00 C747.24,1009.00 747.07,1009.00 746.90,1009.00 ZM 486.23 480.37 C487.35,480.84 488.49,481.00 489.94,481.00 C492.11,481.00 494.16,480.55 494.50,480.00 C494.84,479.45 496.35,479.00 497.86,479.00 C499.37,479.00 501.10,478.50 501.72,477.88 C502.33,477.27 503.85,476.26 505.08,475.63 C506.32,475.01 509.06,471.16 511.17,467.07 C514.33,460.93 515.00,458.62 515.00,453.75 C515.00,446.64 514.15,444.87 509.26,441.86 C501.84,437.30 492.46,429.06 490.50,425.38 C488.95,422.48 488.51,419.77 488.54,413.33 C488.56,408.20 489.03,404.57 489.79,403.81 C490.45,403.15 491.00,401.99 491.00,401.25 C491.00,399.36 495.11,395.90 500.50,393.13 C499.12,394.00 497.82,394.97 496.58,396.07 C491.18,400.81 489.81,404.35 489.88,413.37 C489.98,424.09 492.19,427.75 503.31,435.57 C507.95,438.83 512.59,442.00 513.62,442.61 C515.17,443.52 515.56,445.20 515.84,452.22 C516.16,459.98 515.97,461.09 513.60,464.85 C512.17,467.11 511.00,469.32 511.00,469.75 C511.00,471.50 504.91,477.79 502.29,478.75 C493.99,481.79 491.24,482.23 487.82,481.11 C487.33,480.94 486.80,480.69 486.23,480.37 ZM 550.63 388.46 C551.05,388.67 551.48,388.90 551.94,389.15 C560.20,393.61 561.50,395.85 561.50,405.64 C561.50,413.40 561.27,414.23 556.61,423.43 C552.09,432.37 551.77,433.48 552.28,438.47 C552.97,445.09 555.48,450.61 558.79,452.79 C562.10,454.95 578.43,455.66 581.92,453.80 C583.25,453.08 585.81,450.48 587.61,448.00 C590.56,443.93 590.87,442.80 590.93,436.18 C590.99,429.98 591.38,428.37 593.50,425.59 C594.01,424.92 594.48,424.23 594.88,423.59 C593.68,426.54 592.62,431.02 592.10,435.88 C591.37,442.59 590.62,445.07 588.35,448.29 C583.94,454.52 581.28,456.01 573.46,456.64 C567.72,457.10 565.64,456.82 561.58,455.06 C558.88,453.89 556.06,452.16 555.32,451.21 C549.98,444.44 549.48,433.86 554.11,425.27 C555.82,422.10 557.54,419.05 557.93,418.50 C559.30,416.60 561.00,409.25 561.00,405.26 C561.00,398.49 557.39,392.67 550.63,388.46 ZM 391.50 404.74 C399.41,401.68 407.41,391.55 409.10,382.45 C411.28,370.73 408.95,359.79 402.41,351.09 C398.86,346.37 396.49,344.38 391.44,341.90 C389.11,340.75 387.57,340.02 386.14,339.60 C390.69,339.75 391.77,340.40 395.30,342.84 C402.04,347.51 408.42,355.97 409.84,362.12 C411.29,368.41 411.33,380.27 409.92,385.35 C408.69,389.78 403.33,398.47 399.81,401.73 C398.49,402.96 394.77,404.88 391.55,405.98 C385.25,408.15 379.41,408.56 377.00,407.00 C376.65,406.77 376.11,406.57 375.48,406.40 C381.06,407.03 386.93,406.50 391.50,404.74 ZM 783.17 343.89 C783.24,344.03 783.31,344.14 783.38,344.24 C784.77,346.07 790.92,349.00 793.37,349.00 C794.16,349.00 799.59,346.72 805.44,343.94 C818.50,337.71 820.62,337.72 823.66,344.00 C824.71,346.17 825.84,349.90 826.36,352.82 C826.28,352.67 826.20,352.54 826.12,352.45 C825.64,351.93 824.70,349.81 824.04,347.74 C821.44,339.62 818.73,339.27 806.40,345.49 C796.75,350.35 794.03,350.80 788.27,348.48 C785.81,347.49 784.16,346.05 783.17,343.89 ZM 345.14 642.66 C347.64,643.44 350.23,644.00 351.54,644.00 C353.22,644.00 355.10,644.50 355.70,645.10 C356.31,645.71 359.66,646.79 363.15,647.50 C366.64,648.22 374.17,649.75 379.87,650.92 C385.58,652.08 390.71,653.32 391.28,653.67 C391.39,653.74 391.66,653.83 392.05,653.92 C389.34,653.59 386.78,653.28 385.00,653.06 C371.19,651.36 363.11,649.27 345.82,642.90 C345.59,642.82 345.36,642.74 345.14,642.66 ZM 799.12 399.68 C802.29,400.72 806.74,401.44 813.00,402.12 C818.22,402.69 823.97,403.36 825.76,403.62 C829.94,404.23 832.11,407.31 832.33,413.57 C832.11,410.83 831.35,408.94 830.08,407.58 C828.24,405.63 826.66,405.00 823.58,405.00 C816.96,405.00 805.84,402.41 799.12,399.68 ZM 502.15 610.37 C501.51,617.28 501.08,625.78 501.05,634.12 C501.03,641.36 501.10,645.85 501.44,649.57 C499.69,637.34 498.78,622.28 500.03,619.95 C500.64,618.81 501.57,614.64 502.11,610.69 C502.12,610.58 502.14,610.48 502.15,610.37 ZM 505.60 390.58 C507.21,389.71 508.51,388.92 509.00,388.48 C510.34,387.28 521.35,386.33 535.08,386.17 C531.55,386.27 527.59,386.52 523.50,386.93 C515.78,387.70 510.14,388.80 505.60,390.58 ZM 377.56 836.66 C384.20,839.31 397.19,843.86 405.50,846.41 C404.53,846.14 403.53,845.87 402.50,845.59 C398.06,844.37 384.45,839.44 377.56,836.66 ZM 823.22 952.35 C823.65,959.27 823.50,967.35 822.98,985.50 C822.49,1002.55 821.79,1018.19 821.41,1020.25 C821.79,1018.19 822.48,1002.33 822.96,985.00 C823.42,968.14 823.53,958.97 823.22,952.35 ZM 419.91 850.04 C428.34,851.81 438.29,853.48 447.68,854.75 C437.14,853.47 429.12,852.15 419.91,850.04 ZM 375.34 339.62 C370.58,340.15 368.65,340.89 366.07,342.90 C364.11,344.43 361.70,346.12 360.72,346.65 C361.70,346.12 364.25,344.32 366.40,342.64 C369.35,340.34 370.31,339.77 375.34,339.62 ZM 827.18 443.50 C825.87,449.21 823.85,455.44 821.04,462.45 C823.53,456.01 826.10,448.19 827.18,443.50 ZM 357.99 396.72 C359.50,398.98 361.37,401.12 363.17,402.45 C360.96,401.03 359.51,399.40 357.99,396.72 ZM 827.01 356.84 C827.38,358.71 827.83,360.23 828.18,360.67 C828.69,361.31 828.97,364.45 828.80,367.66 C828.65,370.67 828.52,372.15 827.91,373.14 C828.52,372.15 828.65,370.65 828.80,367.60 C828.97,364.36 828.63,361.23 828.05,360.65 C827.51,360.11 827.06,358.45 827.01,356.84 ZM 467.20 458.05 C469.79,459.24 472.00,461.14 472.00,463.02 C472.00,464.62 473.95,468.04 476.59,471.45 C473.95,468.19 472.00,464.93 472.00,463.11 C472.00,461.20 469.79,459.26 467.20,458.05 ZM 474.33 857.04 C477.10,857.08 480.60,857.26 483.73,857.50 C480.59,857.37 477.44,857.22 474.33,857.04 ZM 869.52 708.53 C869.84,711.37 870.00,714.29 870.00,717.27 C870.00,718.56 869.97,719.86 869.93,721.09 C870.02,717.02 869.87,712.25 869.52,708.53 ZM 366.41 404.17 C368.39,404.99 370.59,405.60 372.88,406.02 C372.82,406.02 372.77,406.02 372.72,406.02 C371.42,406.01 368.78,405.22 366.41,404.17 ZM 595.96 421.40 C595.99,421.31 596.00,421.22 596.00,421.16 C596.00,420.52 596.62,420.00 597.38,420.00 C598.14,420.00 599.32,419.33 600.00,418.50 C599.32,419.33 598.25,420.01 597.63,420.01 C597.09,420.02 596.53,420.52 595.96,421.40 ZM 792.54 383.50 C791.33,385.07 791.02,386.75 791.26,389.23 C791.09,387.65 791.13,386.16 791.48,385.07 C791.60,384.68 791.99,384.12 792.54,383.50 ZM 783.23 331.47 C782.38,333.05 782.07,334.95 782.07,337.50 C782.06,339.48 782.37,341.60 782.81,342.99 C782.26,341.39 782.02,339.43 782.03,337.05 C782.05,334.76 782.39,332.99 783.23,331.47 ZM 797.52 290.61 C798.45,292.27 799.37,293.93 800.24,295.48 C800.78,296.43 801.31,297.39 801.81,298.33 C800.60,296.18 799.08,293.44 797.52,290.61 ZM 334.50 639.06 C335.81,639.39 338.50,640.28 341.07,641.20 C338.14,640.18 335.58,639.35 334.50,639.07 C332.75,638.61 327.37,636.86 321.45,634.85 C327.38,636.86 332.76,638.61 334.50,639.06 ZM 483.30 632.48 C481.99,629.60 479.94,627.11 477.22,625.15 C477.23,625.17 477.25,625.18 477.27,625.19 C479.95,627.10 481.99,629.59 483.30,632.48 ZM 817.90 469.83 C817.35,471.05 816.79,472.30 816.20,473.56 C816.72,472.38 817.31,471.08 817.90,469.83 ZM 505.11 595.43 C504.80,595.62 504.49,596.24 504.19,597.21 C504.49,596.04 504.75,595.65 505.11,595.43 ZM 503.43 660.34 C505.25,667.47 506.31,670.78 509.34,676.79 C506.30,670.77 505.25,667.48 503.45,660.40 C503.44,660.38 503.44,660.36 503.43,660.34 ZM 788.57 274.01 C789.07,274.92 789.57,275.83 790.02,276.72 C789.49,275.72 789.00,274.82 788.57,274.01 ZM 540.67 386.16 C541.77,386.17 542.73,386.22 543.60,386.30 C542.71,386.23 541.73,386.18 540.67,386.16 ZM 793.70 396.42 C793.94,396.69 794.19,396.96 794.47,397.21 C794.37,397.13 794.28,397.04 794.19,396.96 C794.02,396.81 793.86,396.62 793.70,396.42 ZM 370.53 834.00 C371.36,834.00 372.81,834.45 373.76,834.98 C373.96,835.09 374.22,835.23 374.54,835.38 C374.21,835.22 373.94,835.09 373.76,834.99 C372.81,834.45 371.36,834.00 370.53,834.00 ZM 806.96 309.69 C806.99,309.83 807.00,309.95 807.00,310.05 C807.00,310.12 807.00,310.20 806.99,310.28 C806.73,313.00 802.18,319.00 800.31,319.00 C802.18,319.00 806.75,312.97 806.99,310.28 C806.99,310.21 807.00,310.14 807.00,310.07 C807.00,309.97 806.98,309.84 806.96,309.69 Z" fill="rgba(240,213,69,1)"/>
<path d="M 236.52 1020.25 C234.84,1011.70 233.83,1004.05 233.39,996.50 C230.20,941.33 230.14,938.39 231.07,893.17 C232.01,847.46 232.96,833.71 237.17,805.00 C240.08,785.23 240.75,781.21 241.33,780.28 C241.61,779.82 243.21,771.36 244.89,761.47 C246.56,751.59 248.64,741.03 249.50,738.00 C250.36,734.97 251.77,729.36 252.62,725.52 C256.40,708.59 260.88,694.94 271.98,666.50 C279.83,646.42 288.33,629.15 291.27,627.34 C293.17,626.16 299.40,626.95 305.10,629.09 C312.88,632.01 330.99,638.15 334.50,639.07 C336.15,639.49 341.24,641.22 345.82,642.90 C363.11,649.27 371.19,651.36 385.00,653.06 C388.58,653.50 395.33,654.32 400.00,654.89 C404.67,655.45 412.10,656.42 416.50,657.05 C429.27,658.86 455.86,659.37 465.75,657.98 C474.38,656.77 474.57,656.68 479.75,651.53 C484.85,646.45 485.00,646.14 485.00,640.63 C485.00,634.25 482.24,628.73 477.27,625.19 C474.62,623.30 472.63,623.15 446.97,622.84 C426.83,622.59 418.89,622.15 417.23,621.20 C415.98,620.49 411.48,619.48 407.23,618.96 C402.98,618.45 396.80,617.54 393.50,616.95 C390.20,616.36 385.70,615.66 383.50,615.39 C381.30,615.11 378.60,614.50 377.50,614.02 C376.40,613.54 374.38,612.93 373.00,612.66 C369.82,612.05 367.90,611.55 360.50,609.47 C357.20,608.54 353.26,607.55 351.74,607.27 C350.22,607.00 348.73,606.37 348.43,605.88 C348.13,605.40 347.10,605.00 346.14,605.00 C343.32,605.00 324.75,598.60 321.73,596.59 C318.21,594.24 319.46,592.44 325.31,591.45 C332.18,590.29 347.58,584.39 356.65,579.45 C377.51,568.08 394.10,542.37 396.59,517.54 C397.28,510.68 396.08,502.92 392.07,488.50 C386.76,469.39 381.87,462.41 360.44,443.38 C350.70,434.72 333.16,424.00 328.75,424.00 C327.30,424.00 325.84,423.55 325.50,423.00 C325.16,422.45 322.97,422.00 320.64,422.00 C318.31,422.00 315.97,421.62 315.45,421.15 C314.93,420.69 311.24,419.79 307.25,419.15 C303.26,418.52 296.96,417.51 293.25,416.91 C279.58,414.70 264.10,416.32 246.40,421.81 C242.89,422.90 232.88,428.31 228.78,431.33 C226.37,433.11 224.42,433.35 211.95,433.42 C195.10,433.52 195.55,433.83 194.33,421.17 C192.40,401.09 193.99,369.66 197.90,350.50 C199.66,341.91 206.38,319.16 210.02,309.50 C215.59,294.73 217.25,290.65 220.38,283.90 C224.42,275.19 226.98,267.81 227.04,264.72 C227.07,263.50 227.73,260.70 228.52,258.50 C229.31,256.30 231.10,247.30 232.51,238.50 C233.91,229.70 235.49,220.58 236.03,218.24 C236.56,215.89 237.00,212.21 237.00,210.07 C237.00,207.92 238.29,202.41 239.87,197.83 C241.45,193.25 243.42,186.80 244.26,183.50 C245.09,180.20 247.43,173.00 249.44,167.50 C251.45,162.00 253.47,156.34 253.93,154.93 C254.39,153.51 256.84,146.88 259.39,140.19 C261.93,133.51 264.73,125.91 265.61,123.32 C267.85,116.74 269.86,114.00 272.46,114.00 C275.00,114.00 282.02,118.76 284.32,122.05 C285.17,123.26 289.61,128.13 294.19,132.87 C301.32,140.25 317.79,157.80 335.14,176.50 C337.69,179.25 341.00,182.97 342.50,184.77 C345.97,188.95 352.22,192.60 358.20,193.94 C363.49,195.12 370.74,193.98 377.50,190.90 C379.70,189.90 384.65,187.98 388.50,186.63 C396.84,183.70 406.20,179.88 414.73,175.91 C418.16,174.32 422.66,172.61 424.73,172.12 C426.81,171.62 431.20,170.45 434.50,169.51 C452.14,164.51 486.44,158.97 499.58,158.99 C505.81,159.00 508.22,162.13 508.59,170.72 C509.09,182.07 512.86,190.60 526.61,211.50 C535.83,225.51 558.41,243.83 574.00,249.94 C578.12,251.56 583.97,254.10 587.00,255.58 C590.03,257.06 594.97,258.90 598.00,259.68 C632.49,268.47 634.67,268.90 652.50,270.25 C683.08,272.58 704.31,271.54 721.00,266.90 C738.62,261.99 747.43,258.65 755.08,253.95 C759.52,251.23 764.22,249.00 765.53,249.00 C767.23,249.00 769.62,250.99 773.98,256.06 C777.32,259.94 780.60,263.99 781.27,265.06 C781.94,266.13 782.94,267.00 783.50,267.00 C784.74,267.00 785.47,268.14 791.82,280.09 C794.57,285.26 799.11,293.55 801.91,298.50 C804.71,303.45 807.00,308.66 807.00,310.07 C807.00,312.63 802.23,319.00 800.31,319.00 C799.75,319.00 798.07,320.13 796.58,321.51 C795.09,322.90 792.02,324.97 789.75,326.13 C783.89,329.12 782.07,331.69 782.03,337.05 C781.99,343.37 783.79,346.68 788.27,348.48 C794.03,350.80 796.75,350.35 806.40,345.49 C818.73,339.27 821.44,339.62 824.04,347.74 C824.70,349.81 825.64,351.93 826.12,352.45 C826.60,352.97 827.00,354.80 827.00,356.50 C827.00,358.20 827.47,360.07 828.05,360.65 C828.63,361.23 828.97,364.36 828.80,367.60 C828.51,373.23 828.34,373.57 825.00,375.20 C822.43,376.45 818.80,376.92 811.30,376.95 C801.64,377.00 800.86,377.16 796.61,380.03 C794.14,381.70 791.83,383.97 791.48,385.07 C790.47,388.24 792.00,394.92 794.19,396.96 C797.86,400.38 814.73,405.00 823.58,405.00 C826.66,405.00 828.24,405.63 830.08,407.58 C833.45,411.17 833.19,418.51 829.06,435.50 C828.53,437.70 827.68,441.30 827.18,443.50 C825.65,450.17 821.10,463.14 818.06,469.50 C816.48,472.80 814.89,476.51 814.52,477.76 C814.16,479.00 812.81,481.26 811.53,482.78 C810.25,484.30 808.21,487.46 806.99,489.80 C805.76,492.15 802.60,497.08 799.95,500.78 C797.30,504.48 794.41,508.51 793.52,509.75 C791.05,513.19 788.45,512.52 779.45,506.08 C774.89,502.82 768.54,498.70 765.33,496.93 C762.12,495.16 756.42,491.97 752.66,489.85 C748.90,487.73 745.63,486.00 745.40,486.00 C745.17,486.00 743.07,485.12 740.74,484.05 C736.81,482.25 724.94,478.39 715.50,475.84 C713.30,475.25 710.83,474.55 710.00,474.29 C705.72,472.93 672.76,471.11 670.82,472.12 C669.89,472.60 666.43,473.00 663.12,473.00 C659.82,473.00 656.84,473.45 656.50,474.00 C656.16,474.55 652.76,475.00 648.94,475.00 C644.98,475.00 642.00,475.43 642.00,476.00 C642.00,476.55 640.20,477.00 638.00,477.00 C635.80,477.00 634.00,477.45 634.00,478.00 C634.00,478.55 632.85,479.00 631.44,479.00 C628.11,479.00 619.77,481.03 618.55,482.14 C618.03,482.61 616.59,483.00 615.36,483.00 C614.13,483.00 612.84,483.45 612.50,484.00 C612.16,484.55 611.00,485.00 609.92,485.00 C608.84,485.00 606.22,486.10 604.09,487.44 C601.96,488.79 597.83,490.67 594.91,491.63 C591.99,492.58 586.81,495.27 583.41,497.60 C580.01,499.93 575.71,502.61 573.86,503.56 C572.01,504.50 570.28,505.58 570.00,505.95 C569.72,506.32 566.75,508.27 563.40,510.29 C555.89,514.81 538.74,532.37 530.47,544.01 C523.76,553.45 518.00,562.61 518.00,563.83 C518.00,564.27 517.10,566.49 516.00,568.76 C514.90,571.04 514.00,573.40 514.00,574.00 C514.00,574.61 513.11,576.77 512.01,578.80 C508.54,585.26 506.00,591.32 506.00,593.13 C506.00,594.09 505.60,595.13 505.11,595.43 C504.20,595.99 503.88,597.66 502.11,610.69 C501.57,614.64 500.64,618.81 500.03,619.95 C498.36,623.07 500.55,648.97 503.45,660.40 C505.94,670.20 507.00,672.74 513.89,685.32 C518.13,693.08 518.16,693.18 516.98,698.32 C515.83,703.33 511.74,711.01 510.24,710.99 C508.50,710.97 486.95,706.90 481.00,705.48 C472.70,703.49 460.64,699.52 455.50,697.08 C438.74,689.10 431.77,685.63 427.00,682.89 C414.10,675.46 410.41,673.85 405.91,673.67 C400.92,673.49 396.78,675.16 393.25,678.79 C390.38,681.74 390.22,689.68 392.90,695.58 C394.99,700.20 401.73,706.16 407.58,708.58 C409.73,709.47 412.17,710.80 413.00,711.53 C414.56,712.91 429.89,720.70 445.50,728.04 C456.32,733.12 471.25,737.70 483.50,739.69 C488.45,740.50 494.86,741.57 497.75,742.08 C500.64,742.58 505.36,743.38 508.25,743.85 C511.14,744.32 514.17,744.98 515.00,745.33 C515.83,745.67 524.60,746.43 534.50,747.02 C590.89,750.36 597.99,751.93 606.68,763.00 C610.85,768.32 611.00,768.74 611.00,775.64 C611.00,779.56 610.44,784.06 609.75,785.64 C606.62,792.81 597.56,802.37 591.50,804.88 C590.95,805.11 589.29,806.31 587.80,807.54 C586.32,808.77 582.50,810.54 579.30,811.47 C576.11,812.40 572.72,813.58 571.76,814.08 C570.81,814.59 569.09,815.00 567.95,815.00 C566.80,815.00 564.89,815.55 563.68,816.23 C561.01,817.73 551.64,819.85 547.31,819.94 C545.55,819.97 543.84,820.45 543.50,821.00 C543.16,821.55 540.46,822.00 537.50,822.00 C534.54,822.00 531.88,822.38 531.60,822.84 C530.05,825.35 471.82,824.68 459.00,822.01 C455.98,821.38 449.90,820.47 445.50,819.99 C441.10,819.51 435.02,818.67 432.00,818.12 C428.98,817.58 424.25,816.80 421.50,816.41 C418.75,816.01 415.02,814.86 413.22,813.84 C411.42,812.83 409.20,812.00 408.29,812.00 C406.43,812.00 395.05,808.15 393.50,807.00 C392.95,806.60 390.70,805.72 388.50,805.05 C386.30,804.39 383.15,803.23 381.50,802.48 C379.85,801.73 374.96,799.50 370.64,797.52 C360.01,792.67 355.18,792.08 349.58,794.96 C347.19,796.19 344.24,798.54 343.03,800.18 C341.09,802.80 340.91,803.90 341.52,809.33 C342.15,814.86 342.66,815.92 346.42,819.55 C348.75,821.80 354.72,825.57 359.81,828.02 C364.87,830.45 369.00,832.79 369.00,833.22 C369.00,833.65 369.68,834.00 370.51,834.00 C371.35,834.00 372.81,834.44 373.76,834.99 C376.42,836.50 396.86,844.04 402.50,845.59 C421.73,850.87 432.12,852.93 450.00,855.03 C466.90,857.00 492.59,858.23 510.00,857.89 C520.17,857.69 532.02,857.53 536.32,857.52 L 544.14 857.50 L 547.70 863.94 C554.00,875.35 565.31,888.28 576.50,896.86 C579.80,899.40 583.64,902.48 585.04,903.72 C586.44,904.95 589.82,907.15 592.54,908.59 C607.12,916.33 619.62,922.26 624.00,923.52 C625.38,923.92 626.95,924.56 627.50,924.95 C628.57,925.70 634.74,927.90 641.81,930.05 C644.18,930.77 646.55,932.15 647.06,933.11 C648.10,935.05 648.35,949.91 647.39,952.42 C647.06,953.29 645.96,954.00 644.95,954.00 C643.94,954.00 642.84,954.45 642.50,955.00 C642.16,955.55 639.24,956.00 636.00,956.00 C632.76,956.00 629.84,956.45 629.50,957.00 C629.16,957.55 628.08,958.00 627.09,958.00 C624.29,958.00 619.61,960.68 616.68,963.97 C612.93,968.18 613.03,973.18 616.92,977.08 C620.12,980.27 624.48,980.87 630.98,979.00 C636.09,977.54 638.00,978.49 638.00,982.51 C638.00,984.36 637.55,986.16 637.00,986.50 C635.85,987.21 635.66,996.00 636.77,997.50 C637.88,999.02 641.77,1001.00 643.64,1001.00 C646.59,1001.00 651.98,996.01 656.70,988.91 C660.99,982.46 661.54,982.00 664.96,982.00 C666.97,982.00 669.49,982.66 670.56,983.47 C673.84,985.95 678.79,985.34 683.11,981.92 C686.37,979.33 687.00,978.23 686.99,975.17 C686.99,969.92 683.43,964.75 676.24,959.52 L 670.00 954.98 L 670.02 947.24 C670.02,942.98 670.42,938.88 670.90,938.12 C671.97,936.43 682.54,937.29 691.00,939.76 C695.37,941.03 701.19,941.34 719.30,941.29 C742.02,941.23 742.11,941.23 743.61,943.52 C744.64,945.10 745.04,947.93 744.89,952.52 C744.65,960.22 743.61,961.65 735.50,965.55 C729.27,968.55 722.12,972.83 718.65,975.64 C716.43,977.44 716.00,978.59 716.00,982.74 C716.00,986.39 716.52,988.16 717.96,989.46 C720.76,992.00 727.94,992.60 731.78,990.61 C733.50,989.73 735.88,989.00 737.07,989.00 C738.84,989.00 739.15,989.45 738.75,991.52 C738.49,992.91 738.66,994.29 739.13,994.58 C739.61,994.88 740.00,997.37 740.00,1000.12 C740.00,1007.73 741.06,1009.00 747.42,1009.00 C753.54,1009.00 754.06,1008.48 758.05,998.50 C762.04,988.50 764.60,985.00 767.89,985.00 C769.47,985.00 772.27,985.61 774.13,986.37 C775.98,987.12 779.63,988.01 782.24,988.35 C786.52,988.90 787.31,988.67 790.43,985.93 C800.37,977.20 795.48,967.64 778.66,962.95 C774.17,961.70 769.94,960.24 769.25,959.72 C768.39,959.06 768.00,955.52 768.00,948.48 L 768.00 938.20 L 771.15 937.10 C772.88,936.49 775.30,936.00 776.53,936.00 C777.76,936.00 780.96,935.35 783.64,934.55 C786.31,933.75 794.58,931.58 802.00,929.72 C809.42,927.86 816.19,926.03 817.03,925.65 C818.96,924.77 820.43,929.66 822.40,943.50 C823.55,951.59 823.66,959.51 822.96,985.00 C822.48,1002.33 821.79,1018.19 821.41,1020.25 L 820.74 1024.00 L 529.00 1024.00 L 237.26 1024.00 L 236.52 1020.25 ZM 509.00 508.35 C518.67,504.61 528.00,496.80 536.91,484.99 C539.09,482.11 539.68,481.86 542.91,482.48 C544.89,482.86 548.30,483.51 550.50,483.91 C552.70,484.31 555.93,485.39 557.68,486.31 C561.61,488.37 578.34,488.83 585.00,487.06 C587.47,486.40 590.62,485.61 592.00,485.29 C599.27,483.64 611.74,471.01 616.70,460.26 L 620.23 452.63 L 619.82 440.42 C619.44,428.99 619.24,427.95 616.60,424.15 C615.06,421.92 612.73,419.40 611.43,418.55 C608.40,416.56 601.63,416.53 600.00,418.50 C599.32,419.33 598.14,420.00 597.38,420.00 C596.62,420.00 596.00,420.52 596.00,421.16 C596.00,421.79 594.88,423.79 593.50,425.59 C591.38,428.37 590.99,429.98 590.93,436.18 C590.87,442.80 590.56,443.93 587.61,448.00 C585.81,450.48 583.25,453.08 581.92,453.80 C578.43,455.66 562.10,454.95 558.79,452.79 C555.48,450.61 552.97,445.09 552.28,438.47 C551.77,433.48 552.09,432.37 556.61,423.43 C561.27,414.23 561.50,413.40 561.50,405.64 C561.50,395.85 560.20,393.61 551.94,389.15 C547.29,386.64 545.26,386.15 539.44,386.15 C523.75,386.14 510.48,387.16 509.00,388.48 C508.18,389.22 505.02,390.98 502.00,392.40 C495.89,395.26 491.00,399.19 491.00,401.25 C491.00,401.99 490.45,403.15 489.79,403.81 C489.03,404.57 488.56,408.20 488.54,413.33 C488.51,419.77 488.95,422.48 490.50,425.38 C492.46,429.06 501.84,437.30 509.26,441.86 C514.15,444.87 515.00,446.64 515.00,453.75 C515.00,458.62 514.33,460.93 511.17,467.07 C509.06,471.16 506.32,475.01 505.08,475.63 C503.85,476.26 502.33,477.27 501.72,477.88 C501.10,478.50 499.37,479.00 497.86,479.00 C496.35,479.00 494.84,479.45 494.50,480.00 C494.16,480.55 492.11,481.00 489.94,481.00 C486.82,481.00 485.17,480.25 481.98,477.37 C477.14,472.99 472.00,465.61 472.00,463.02 C472.00,458.93 461.52,454.73 459.50,458.00 C459.16,458.55 457.87,459.00 456.63,459.00 C452.31,459.00 447.62,469.41 451.00,471.50 C451.55,471.84 452.00,474.71 452.00,477.87 C452.00,481.38 452.57,484.37 453.47,485.56 C454.28,486.63 454.95,488.45 454.97,489.61 C455.01,492.46 462.03,500.26 467.25,503.24 C469.59,504.58 474.20,506.46 477.50,507.42 C480.80,508.38 484.62,509.58 486.00,510.08 C489.69,511.41 503.83,510.35 509.00,508.35 ZM 391.55 405.98 C394.77,404.88 398.49,402.96 399.81,401.73 C403.33,398.47 408.69,389.78 409.92,385.35 C411.33,380.27 411.29,368.41 409.84,362.12 C408.42,355.97 402.04,347.51 395.30,342.84 C390.62,339.60 390.24,339.52 380.40,339.56 C370.69,339.60 370.15,339.72 366.40,342.64 C364.25,344.32 361.70,346.12 360.72,346.65 C357.65,348.31 350.24,359.13 349.64,362.84 C348.81,367.93 350.65,379.35 353.00,383.73 C354.10,385.79 355.00,388.32 355.00,389.35 C355.00,390.38 356.22,393.47 357.71,396.20 C359.75,399.96 361.58,401.76 365.17,403.59 C367.79,404.91 371.19,406.01 372.72,406.02 C374.25,406.02 376.17,406.47 377.00,407.00 C379.41,408.56 385.25,408.15 391.55,405.98 ZM 648.20 367.95 C651.12,367.38 654.47,366.70 655.67,366.46 C658.58,365.85 667.78,357.89 670.24,353.85 C674.91,346.16 676.21,335.55 673.54,326.75 C670.81,317.76 661.95,307.62 654.23,304.65 C649.66,302.88 640.02,302.42 638.45,303.89 C637.93,304.38 634.68,304.97 631.23,305.21 C625.54,305.59 624.59,305.99 620.93,309.57 C618.71,311.73 616.22,314.85 615.39,316.50 C613.59,320.11 611.78,342.70 613.10,345.18 C613.60,346.11 614.00,347.72 614.00,348.77 C614.00,351.23 627.03,362.94 633.52,366.32 C639.15,369.25 640.75,369.42 648.20,367.95 ZM 809.00 773.13 C804.65,770.75 802.90,770.00 801.70,770.00 C799.96,770.00 795.71,765.40 793.37,761.00 C791.99,758.40 791.53,755.44 791.56,749.50 C791.63,738.13 794.27,733.45 808.50,719.50 C820.60,707.64 822.37,705.06 823.43,697.73 C824.01,693.77 823.69,692.04 821.56,687.54 C818.40,680.85 818.37,678.68 821.37,671.87 C822.67,668.92 824.07,664.92 824.47,663.00 C826.68,652.37 830.94,652.27 841.90,662.59 C854.56,674.50 861.84,684.61 865.95,696.00 C866.65,697.92 867.82,701.08 868.56,703.00 C870.13,707.06 870.48,725.72 869.06,729.20 C868.54,730.47 867.85,733.56 867.52,736.08 C867.04,739.81 865.83,741.93 860.94,747.58 C853.81,755.82 854.94,754.66 847.37,761.48 C843.99,764.52 840.84,767.00 840.35,767.00 C839.87,767.00 839.03,768.01 838.49,769.24 C837.83,770.73 836.16,771.78 833.50,772.36 C827.93,773.59 810.82,774.13 809.00,773.13 Z" fill="rgba(253,253,252,1)"/>
</g>
</svg>